<svg xmlns="http://www.w3.org/2000/svg">
  <symbol id="arrow-slider" viewBox="0 0 14 9" fill="none">
    <path d="M13.3536 4.85355C13.5488 4.65829 13.5488 4.34171 13.3536 4.14645L10.1716 0.964466C9.97631 0.769204 9.65973 0.769204 9.46447 0.964466C9.2692 1.15973 9.2692 1.47631 9.46447 1.67157L12.2929 4.5L9.46447 7.32843C9.2692 7.52369 9.2692 7.84027 9.46447 8.03553C9.65973 8.2308 9.97631 8.2308 10.1716 8.03553L13.3536 4.85355ZM0 5H13V4H0V5Z" fill="currentColor"/>
  </symbol>
  <symbol id="vk" viewBox="0 0 25 25" fill="none">
    <path d="M13.7227 15.0518C14.1654 14.9087 14.7322 15.9964 15.3355 16.4127C15.7884 16.728 16.1352 16.6599 16.1352 16.6599L17.7434 16.6368C17.7434 16.6368 18.5838 16.5849 18.1865 15.9172C18.1536 15.8616 17.9536 15.4222 16.9895 14.5179C15.9815 13.5718 16.1181 13.7251 17.3317 12.0896C18.0712 11.0927 18.3671 10.4838 18.2745 10.2244C18.1856 9.97486 17.6424 10.0397 17.6424 10.0397L15.8305 10.0522C15.6541 10.0527 15.5045 10.1073 15.4365 10.2907C15.4351 10.2925 15.1489 11.0621 14.7674 11.7164C13.9612 13.1005 13.6394 13.1741 13.506 13.0875C13.1999 12.887 13.2773 12.2832 13.2773 11.8539C13.2773 10.5125 13.4773 9.9531 12.8855 9.80863C12.6878 9.76047 12.5433 9.72898 12.0391 9.72435C11.3945 9.71463 10.8472 9.72435 10.5369 9.8767C10.3309 9.97996 10.173 10.2064 10.2688 10.2194C10.3892 10.2356 10.6592 10.2934 10.8036 10.4907C10.9893 10.7463 10.9838 11.3191 10.9838 11.3191C10.9838 11.3191 11.0898 12.8986 10.7337 13.0944C10.4892 13.2287 10.1549 12.9546 9.43578 11.6979C9.06858 11.0552 8.79121 10.3448 8.79121 10.3448C8.79121 10.3448 8.7375 10.2129 8.64026 10.1406C8.52449 10.055 8.36243 10.0277 8.36243 10.0277L6.64265 10.0388C6.64265 10.0388 6.38427 10.0462 6.28935 10.1601C6.20507 10.261 6.2824 10.4694 6.2824 10.4694C6.2824 10.4694 7.62942 13.6557 9.15471 15.2606C10.5531 16.734 12.1423 16.6363 12.1423 16.6363H12.8624C12.8624 16.6363 13.0795 16.6113 13.1907 16.4918C13.2944 16.3807 13.2898 16.1719 13.2898 16.1719C13.2898 16.1719 13.2754 15.1953 13.7227 15.0518Z" fill="currentColor"/>
  </symbol>
  <symbol id="ok" viewBox="0 0 25 25" fill="none">
    <path d="M12.6804 6.88882C13.5788 6.88882 14.3096 7.64312 14.3096 8.57064C14.3096 9.49536 13.5788 10.2497 12.6804 10.2497C11.7819 10.2497 11.0512 9.49536 11.0512 8.57064C11.0512 7.64312 11.7819 6.88882 12.6804 6.88882ZM12.6804 12.6299C14.8508 12.6299 16.6153 10.8084 16.6153 8.57064C16.6153 6.33008 14.8508 4.50858 12.6804 4.50858C10.5099 4.50858 8.74809 6.33008 8.74809 8.57064C8.74809 10.8084 10.5099 12.6299 12.6804 12.6299ZM14.2717 15.9432C15.0727 15.7533 15.844 15.4264 16.5558 14.9654C17.0943 14.6162 17.2567 13.8815 16.9184 13.3255C16.5774 12.7668 15.8684 12.5992 15.3271 12.9512C13.7169 13.996 11.6438 13.996 10.0309 12.9512C9.49232 12.5992 8.78057 12.7668 8.44228 13.3255C8.10399 13.8815 8.26637 14.6162 8.80492 14.9654C9.51668 15.4264 10.288 15.7533 11.089 15.9432L8.88882 18.2117C8.43957 18.6755 8.43957 19.4298 8.88882 19.8936C9.11615 20.1254 9.40843 20.2428 9.70342 20.2428C9.9984 20.2428 10.2934 20.1254 10.5207 19.8936L12.6804 17.6642L14.8427 19.8936C15.2919 20.3601 16.0199 20.3601 16.4719 19.8936C16.9211 19.4298 16.9211 18.6755 16.4719 18.2117L14.2717 15.9432Z" fill="currentColor"/>
  </symbol>
  <symbol id="reddit" viewBox="0 0 25 25" fill="none">
    <path d="M13.8509 5.55566C13.4055 5.55566 12.9876 5.7816 12.7195 6.10741C12.4514 6.43323 12.3037 6.8304 12.196 7.24897C12.0251 7.92201 11.9723 8.66877 11.9596 9.34181C10.7079 9.42505 9.57444 9.79606 8.63303 10.3692C8.25098 10.0481 7.79083 9.86978 7.34968 9.87454C6.84731 9.87929 6.37028 10.0957 6.01566 10.5404C5.3381 11.3895 5.4162 12.7784 6.20141 13.6036C6.15286 13.8581 6.11698 14.1197 6.11698 14.3837C6.11698 17.1805 8.97498 19.4446 12.5 19.4446C16.025 19.4446 18.883 17.1781 18.883 14.3837C18.883 14.1197 18.8471 13.8581 18.7986 13.6036C19.5838 12.7784 19.6619 11.3895 18.9843 10.5404C18.6297 10.0957 18.1527 9.87929 17.6503 9.87454C17.2091 9.86978 16.749 10.0481 16.3669 10.3692C15.4298 9.79843 14.3026 9.42743 13.0572 9.34181C13.0741 8.72109 13.1184 8.07659 13.243 7.59143C13.3211 7.28702 13.414 7.06584 13.5132 6.94455C13.6124 6.82326 13.6841 6.77332 13.8509 6.77332C14.2118 6.77332 14.2583 6.88985 14.4757 7.17286C14.5854 7.31556 14.7121 7.49393 14.9147 7.66754C15.1174 7.84115 15.4171 7.99098 15.7421 7.99098V6.77332C15.6514 6.77332 15.6345 6.77094 15.5733 6.71624C15.5121 6.66154 15.4276 6.5355 15.3031 6.37378C15.054 6.04796 14.5707 5.55566 13.8509 5.55566ZM17.3632 5.66982C16.5231 5.66982 15.8435 6.43561 15.8435 7.38215C15.8435 8.32869 16.5231 9.09448 17.3632 9.09448C18.2033 9.09448 18.883 8.32869 18.883 7.38215C18.883 6.43561 18.2033 5.66982 17.3632 5.66982ZM17.3632 6.27865C17.9036 6.27865 18.3426 6.77332 18.3426 7.38215C18.3426 7.99098 17.9036 8.48565 17.3632 8.48565C16.8229 8.48565 16.3838 7.99098 16.3838 7.38215C16.3838 6.77332 16.8229 6.27865 17.3632 6.27865ZM12.5 10.2931C15.491 10.2931 18.0218 12.1695 18.0218 14.3837C18.0218 16.6002 15.491 18.4742 12.5 18.4742C9.50901 18.4742 6.97818 16.6002 6.97818 14.3837C6.97818 12.1695 9.50901 10.2931 12.5 10.2931ZM7.36656 10.8449C7.51643 10.8472 7.67263 10.8853 7.82249 10.959C7.28002 11.4228 6.84942 11.9555 6.55602 12.5572C6.35339 12.0863 6.40827 11.4989 6.65734 11.1873C6.83887 10.959 7.09005 10.8425 7.36656 10.8449ZM17.6334 10.8449C17.9099 10.8425 18.1611 10.959 18.3426 11.1873C18.5917 11.4989 18.6466 12.0863 18.4439 12.5572C18.1506 11.9555 17.72 11.4228 17.1775 10.959C17.3273 10.8853 17.4835 10.8472 17.6334 10.8449ZM10.3385 12.3669C9.79819 12.3669 9.35914 12.8616 9.35914 13.4704C9.35914 14.0793 9.79819 14.5739 10.3385 14.5739C10.8789 14.5739 11.3179 14.0793 11.3179 13.4704C11.3179 12.8616 10.8789 12.3669 10.3385 12.3669ZM14.6614 12.3669C14.1211 12.3669 13.682 12.8616 13.682 13.4704C13.682 14.0793 14.1211 14.5739 14.6614 14.5739C15.2018 14.5739 15.6408 14.0793 15.6408 13.4704C15.6408 12.8616 15.2018 12.3669 14.6614 12.3669ZM9.81507 16.115C10.1591 16.9165 11.223 17.6942 12.5 17.6942C13.777 17.6942 14.8577 16.9165 15.2018 16.115C14.577 16.5693 13.5913 16.8761 12.5 16.8761C11.4087 16.8761 10.4399 16.5693 9.81507 16.115Z" fill="currentColor"/>
  </symbol>
  <symbol id="logo" viewBox="0 0 205 62" fill="none">
    <path fill="currentColor" d="M15.731 27.244 19.5 23.36l4.286 3.885h7.347l-11.68-11.24-11.587 11.24h7.865Z"/>
    <path fill="currentColor" d="m26.518 9.205-5.558 5.55 3.674 3.7 1.884-1.85L36.833 26.69c-2.355 6.152-8.384 10.547-15.496 10.547-9.138 0-16.533-7.262-16.533-16.236.047-8.974 7.442-16.236 16.58-16.236 8.101 0 14.884 5.782 16.25 13.322l4.992 5.18c.094-.74.142-1.526.142-2.266 0-5.597-2.214-10.87-6.265-14.848C32.453 2.174 27.083 0 21.383 0 15.639 0 10.316 2.174 6.265 6.152 2.214 10.13 0 15.357 0 21c0 5.643 2.214 10.87 6.264 14.848C10.315 39.826 15.684 42 21.384 42c5.699 0 11.069-2.174 15.12-6.152 2.495-2.451 4.285-5.366 5.274-8.557.189-.555.33-1.157.471-1.712l-4.333-4.486L26.518 9.205ZM60.411 13.495h3.145l-1.715 8.468h5.304l-.508 2.45h-8.449l2.223-10.918ZM70.105 13.495h3.144l-2.223 10.917h-3.144l2.223-10.917ZM78.139 15.88l-.492 2.403h4.907l-.492 2.386H77.17l-.762 3.743h-3.145l2.224-10.917h8.703l-.492 2.386h-5.56ZM88.28 15.88l-.364 1.841h4.939l-.46 2.308h-4.956l-.397 1.997h5.829l-.508 2.386h-8.91l2.223-10.917h8.703l-.492 2.386h-5.606ZM98.205 15.943H94.79l.509-2.448h9.957l-.508 2.448h-3.398l-1.731 8.47h-3.145l1.731-8.47ZM110.053 24.63c-1.123 0-2.102-.202-2.938-.608-.826-.405-1.467-.972-1.922-1.7-.445-.728-.667-1.56-.667-2.495 0-1.248.291-2.371.873-3.37a6.221 6.221 0 0 1 2.462-2.339c1.059-.561 2.261-.842 3.605-.842 1.122 0 2.097.203 2.922.608.837.406 1.477.973 1.922 1.7.455.728.683 1.56.683 2.496 0 1.248-.296 2.37-.889 3.369-.583.998-1.403 1.778-2.462 2.34-1.048.56-2.245.841-3.589.841Zm.27-2.557c.698 0 1.313-.172 1.842-.515.529-.343.937-.8 1.223-1.373a4.291 4.291 0 0 0 .429-1.918c0-.738-.233-1.326-.699-1.762-.455-.447-1.096-.671-1.922-.671-.699 0-1.313.172-1.842.515a3.415 3.415 0 0 0-1.223 1.388 4.193 4.193 0 0 0-.429 1.903c0 .738.228 1.33.683 1.778.466.436 1.112.655 1.938.655ZM122.896 24.63c-.963 0-1.794-.155-2.493-.467-.699-.323-1.234-.78-1.604-1.373-.371-.593-.556-1.29-.556-2.09 0-.333.042-.717.127-1.154l1.239-6.051h3.144l-1.223 6.004a4.363 4.363 0 0 0-.095.858c0 1.144.614 1.716 1.842 1.716.667 0 1.192-.198 1.573-.593.391-.406.683-1.066.873-1.98l1.223-6.005h3.097l-1.255 6.191c-.677 3.296-2.641 4.945-5.892 4.945ZM141.416 16.973c0 .998-.27 1.86-.81 2.589-.54.717-1.297 1.242-2.271 1.575l1.89 3.275h-3.287l-1.652-2.9h-1.588l-.588 2.9h-3.144l2.223-10.917h4.749c1.419 0 2.52.306 3.303.92.784.613 1.175 1.466 1.175 2.558Zm-3.176.296c0-.447-.153-.78-.461-.998-.307-.23-.735-.344-1.286-.344h-1.652l-.667 3.198h1.874c.699 0 1.239-.161 1.62-.484.381-.322.572-.78.572-1.372ZM60.282 34.706a2.19 2.19 0 0 1-1.044-.25 1.906 1.906 0 0 1-.73-.694 1.904 1.904 0 0 1-.26-.987c0-.365.087-.694.26-.987.177-.293.42-.523.73-.69.313-.17.66-.254 1.044-.254.383 0 .727.083 1.033.25a1.874 1.874 0 0 1 .994 1.682c0 .364-.088.695-.265.992-.177.293-.42.522-.73.689-.305.166-.65.25-1.032.25Zm0-.358c.305 0 .582-.067.828-.2.247-.138.44-.326.58-.565.14-.242.21-.511.21-.808 0-.297-.07-.564-.21-.803a1.462 1.462 0 0 0-.58-.564 1.674 1.674 0 0 0-.828-.206c-.306 0-.584.068-.834.206a1.5 1.5 0 0 0-.586.564c-.14.239-.21.506-.21.803 0 .297.07.566.21.808.144.239.339.427.585.565.251.133.529.2.835.2ZM64.688 31.799c.272 0 .519.061.74.184.22.12.394.29.52.51a1.5 1.5 0 0 1 .187.754c0 .286-.063.539-.188.76a1.33 1.33 0 0 1-.52.515c-.217.12-.463.179-.74.179-.235 0-.449-.047-.64-.141a1.228 1.228 0 0 1-.464-.423v1.59h-.392V31.82h.375v.564c.118-.188.273-.332.464-.434.195-.1.415-.151.658-.151Zm-.028 2.56c.203 0 .387-.045.552-.136a.986.986 0 0 0 .387-.396c.096-.17.144-.363.144-.58 0-.217-.048-.409-.144-.575a.985.985 0 0 0-.387-.396 1.1 1.1 0 0 0-.552-.141c-.206 0-.392.047-.558.14-.162.095-.29.227-.387.397a1.168 1.168 0 0 0-.138.575c0 .217.046.41.138.58.096.17.225.302.387.397.166.09.352.135.558.135ZM69.032 32.162H67.37v2.512h-.392V31.82h2.055v.342ZM70.6 31.799c.379 0 .67.093.872.282.203.184.304.459.304.824v1.769H71.4v-.445a.89.89 0 0 1-.392.347c-.17.083-.372.125-.608.125-.324 0-.582-.076-.773-.228a.73.73 0 0 1-.287-.602c0-.242.088-.438.265-.586.18-.148.466-.222.856-.222h.923v-.174c0-.246-.07-.432-.21-.559-.14-.13-.345-.195-.614-.195-.184 0-.36.03-.53.092-.17.058-.315.14-.436.244l-.177-.287a1.54 1.54 0 0 1 .53-.282 2.05 2.05 0 0 1 .652-.104Zm-.139 2.598c.221 0 .41-.049.57-.146a.91.91 0 0 0 .353-.434v-.467h-.912c-.497 0-.746.17-.746.51a.47.47 0 0 0 .194.396c.129.094.31.141.541.141ZM72.82 31.82h.392v1.264h1.829V31.82h.392v2.854h-.392v-1.259h-1.829v1.259h-.392V31.82ZM76.548 31.82h.392v2.268l1.939-2.268h.348v2.854h-.392v-2.268L76.9 34.674h-.353V31.82ZM81.706 33.187a.921.921 0 0 1 .475.244.58.58 0 0 1 .17.424.644.644 0 0 1-.176.444c-.114.13-.27.232-.47.304a2.002 2.002 0 0 1-.657.103c-.21 0-.416-.029-.618-.087a1.652 1.652 0 0 1-.53-.265l.132-.288c.132.098.287.174.464.228.177.054.355.081.536.081.269 0 .488-.048.657-.146.173-.101.26-.237.26-.407a.39.39 0 0 0-.21-.353c-.14-.086-.332-.13-.575-.13h-.497v-.282h.475c.217 0 .392-.04.525-.12.132-.082.199-.193.199-.33 0-.152-.076-.271-.227-.358-.147-.087-.34-.13-.58-.13-.313 0-.622.077-.928.233l-.11-.298a2.336 2.336 0 0 1 1.077-.266c.22 0 .42.032.597.097.18.062.32.15.42.266.103.116.154.25.154.402a.552.552 0 0 1-.155.385.885.885 0 0 1-.408.25ZM84.242 31.799c.38 0 .67.093.873.282.202.184.304.459.304.824v1.769h-.376v-.445a.89.89 0 0 1-.392.347c-.17.083-.372.125-.608.125-.324 0-.582-.076-.773-.228a.73.73 0 0 1-.287-.602c0-.242.088-.438.265-.586.18-.148.466-.222.856-.222h.922v-.174c0-.246-.07-.432-.21-.559-.14-.13-.344-.195-.613-.195-.184 0-.36.03-.53.092-.17.058-.315.14-.436.244l-.177-.287a1.54 1.54 0 0 1 .53-.282 2.05 2.05 0 0 1 .652-.104Zm-.138 2.598c.221 0 .41-.049.569-.146a.91.91 0 0 0 .353-.434v-.467h-.911c-.497 0-.746.17-.746.51a.47.47 0 0 0 .194.396c.129.094.309.141.541.141ZM89.49 34.337v1.053h-.37v-.716h-2.657V31.82h.392v2.517h1.773V31.82h.392v2.517h.47ZM90.239 31.82h.392v2.268l1.94-2.268h.347v2.854h-.392v-2.268l-1.933 2.268h-.354V31.82ZM96.274 31.82v2.854h-.36v-.944h-1.021l-.674.944h-.425l.723-.998a.983.983 0 0 1-.519-.315.861.861 0 0 1-.182-.564c0-.319.11-.56.331-.727.221-.167.523-.25.906-.25h1.22Zm-2.06.988c0 .423.274.634.823.634h.878v-1.28h-.85c-.568 0-.852.215-.852.646ZM101.445 31.82v2.854h-.392v-2.512H99.23v2.512h-.392V31.82h2.607ZM103.759 34.7c-.28 0-.532-.06-.757-.184a1.402 1.402 0 0 1-.53-.52 1.455 1.455 0 0 1-.193-.749c0-.279.064-.528.193-.749.129-.22.306-.392.53-.515.225-.123.477-.184.757-.184s.532.061.757.184c.224.123.399.295.525.515.128.22.193.47.193.749 0 .278-.065.528-.193.749-.126.22-.301.394-.525.52a1.551 1.551 0 0 1-.757.185Zm0-.34c.206 0 .39-.046.552-.136a.984.984 0 0 0 .387-.397 1.2 1.2 0 0 0 .138-.58 1.2 1.2 0 0 0-.138-.58.948.948 0 0 0-.387-.391 1.08 1.08 0 0 0-.552-.141c-.206 0-.392.047-.558.14a.998.998 0 0 0-.387.392 1.2 1.2 0 0 0-.138.58c0 .217.046.41.138.58.096.17.225.302.387.397.166.09.352.135.558.135ZM107.787 34.674l-.922-1.194-.929 1.194h-.441l1.149-1.465-1.094-1.389h.442l.873 1.118.872-1.118h.431l-1.094 1.389 1.16 1.465h-.447ZM109.974 34.7c-.28 0-.533-.06-.757-.184a1.398 1.398 0 0 1-.531-.52 1.465 1.465 0 0 1-.193-.749c0-.279.065-.528.193-.749.129-.22.306-.392.531-.515.224-.123.477-.184.757-.184.279 0 .532.061.756.184.225.123.4.295.525.515.129.22.193.47.193.749 0 .278-.064.528-.193.749-.125.22-.3.394-.525.52a1.547 1.547 0 0 1-.756.185Zm0-.34c.206 0 .39-.046.552-.136a.984.984 0 0 0 .387-.397 1.2 1.2 0 0 0 .138-.58 1.2 1.2 0 0 0-.138-.58.948.948 0 0 0-.387-.391 1.08 1.08 0 0 0-.552-.141c-.207 0-.393.047-.558.14a.998.998 0 0 0-.387.392 1.2 1.2 0 0 0-.138.58c0 .217.046.41.138.58.096.17.225.302.387.397.165.09.351.135.558.135ZM115.104 34.337v1.026h-.37v-.69h-2.602v.69h-.37v-1.026h.166c.195-.01.328-.152.398-.423s.118-.65.143-1.139l.039-.955h2.143v2.517h.453Zm-2.276-1.54c-.018.405-.053.74-.105 1.003-.051.26-.143.44-.276.537h1.812v-2.175h-1.397l-.034.635ZM117.067 34.7c-.279 0-.532-.06-.756-.184a1.398 1.398 0 0 1-.531-.52 1.455 1.455 0 0 1-.193-.749c0-.279.064-.528.193-.749.129-.22.306-.392.531-.515.224-.123.477-.184.756-.184.28 0 .533.061.757.184.225.123.4.295.525.515.129.22.193.47.193.749 0 .278-.064.528-.193.749-.125.22-.3.394-.525.52a1.548 1.548 0 0 1-.757.185Zm0-.34c.207 0 .391-.046.553-.136a.982.982 0 0 0 .386-.397c.093-.17.139-.363.139-.58 0-.217-.046-.41-.139-.58a.946.946 0 0 0-.386-.391 1.08 1.08 0 0 0-.553-.141c-.206 0-.392.047-.558.14a.996.996 0 0 0-.386.392 1.2 1.2 0 0 0-.138.58c0 .217.046.41.138.58.096.17.224.302.386.397.166.09.352.135.558.135ZM121.231 33.198c.394.09.591.324.591.7 0 .25-.094.441-.282.575-.187.134-.467.2-.839.2h-1.32V31.82h1.281c.332 0 .591.064.779.19a.615.615 0 0 1 .282.543c0 .155-.044.289-.133.401a.76.76 0 0 1-.359.244Zm-1.469-.108h.873c.224 0 .395-.042.513-.125a.412.412 0 0 0 .183-.364.399.399 0 0 0-.183-.358c-.118-.08-.289-.119-.513-.119h-.873v.966Zm.922 1.28c.251 0 .438-.04.564-.12.125-.079.188-.204.188-.374s-.058-.294-.172-.374c-.114-.083-.294-.125-.541-.125h-.961v.993h.922ZM126.038 33.198c.394.09.591.324.591.7 0 .25-.094.441-.282.575-.188.134-.468.2-.84.2h-1.32V31.82h1.282c.331 0 .591.064.779.19a.617.617 0 0 1 .281.543.63.63 0 0 1-.132.401.765.765 0 0 1-.359.244Zm-1.47-.108h.873c.225 0 .396-.042.514-.125a.414.414 0 0 0 .182-.364.4.4 0 0 0-.182-.358c-.118-.08-.289-.119-.514-.119h-.873v.966Zm.923 1.28c.25 0 .438-.04.563-.12.125-.079.188-.204.188-.374s-.057-.294-.171-.374c-.114-.083-.295-.125-.542-.125h-.961v.993h.923ZM131.049 32.162h-1.663v2.512h-.392V31.82h2.055v.342ZM132.679 34.7c-.28 0-.532-.06-.756-.184a1.398 1.398 0 0 1-.531-.52 1.455 1.455 0 0 1-.193-.749c0-.279.064-.528.193-.749.129-.22.306-.392.531-.515.224-.123.476-.184.756-.184s.532.061.757.184c.225.123.4.295.525.515.129.22.193.47.193.749 0 .278-.064.528-.193.749-.125.22-.3.394-.525.52a1.551 1.551 0 0 1-.757.185Zm0-.34c.207 0 .391-.046.553-.136a.988.988 0 0 0 .386-.397 1.2 1.2 0 0 0 .139-.58 1.2 1.2 0 0 0-.139-.58.952.952 0 0 0-.386-.391 1.08 1.08 0 0 0-.553-.141c-.206 0-.392.047-.558.14a.99.99 0 0 0-.386.392 1.2 1.2 0 0 0-.138.58c0 .217.046.41.138.58.095.17.224.302.386.397.166.09.352.135.558.135ZM136.49 31.799c.272 0 .519.061.74.184.221.12.394.29.519.51.125.22.188.472.188.754 0 .286-.063.539-.188.76-.125.22-.298.392-.519.515-.218.12-.464.179-.74.179-.236 0-.45-.047-.641-.141a1.223 1.223 0 0 1-.464-.423v1.59h-.393V31.82h.376v.564a1.21 1.21 0 0 1 .464-.434c.195-.1.414-.151.658-.151Zm-.028 2.56c.202 0 .387-.045.552-.136a.984.984 0 0 0 .387-.396 1.16 1.16 0 0 0 .144-.58 1.13 1.13 0 0 0-.144-.575.984.984 0 0 0-.387-.396 1.098 1.098 0 0 0-.552-.141c-.206 0-.392.047-.558.14a1.037 1.037 0 0 0-.387.397 1.169 1.169 0 0 0-.138.575c0 .217.046.41.138.58.096.17.225.302.387.397.166.09.352.135.558.135ZM140 32.83c.365.003.643.082.834.238.192.156.288.38.288.673 0 .303-.103.537-.31.7-.206.162-.501.242-.884.238l-1.149-.005V31.82h.393v.998l.828.011Zm1.608-1.01H142v2.854h-.392V31.82Zm-1.702 2.566c.269.004.472-.049.608-.157.14-.112.21-.275.21-.488 0-.21-.068-.366-.204-.467-.137-.101-.341-.154-.614-.157l-.734-.011v1.27l.734.01Z"/>
  </symbol>
  <symbol id="vk" width="25" height="25" viewBox="0 0 25 25" fill="none" xmlns="http://www.w3.org/2000/svg">
    <path d="M13.7227 15.0518C14.1654 14.9087 14.7322 15.9964 15.3355 16.4127C15.7884 16.728 16.1352 16.6599 16.1352 16.6599L17.7434 16.6368C17.7434 16.6368 18.5838 16.5849 18.1865 15.9172C18.1536 15.8616 17.9536 15.4222 16.9895 14.5179C15.9815 13.5718 16.1181 13.7251 17.3317 12.0896C18.0712 11.0927 18.3671 10.4838 18.2745 10.2244C18.1856 9.97486 17.6424 10.0397 17.6424 10.0397L15.8305 10.0522C15.6541 10.0527 15.5045 10.1073 15.4365 10.2907C15.4351 10.2925 15.1489 11.0621 14.7674 11.7164C13.9612 13.1005 13.6394 13.1741 13.506 13.0875C13.1999 12.887 13.2773 12.2832 13.2773 11.8539C13.2773 10.5125 13.4773 9.9531 12.8855 9.80863C12.6878 9.76047 12.5433 9.72898 12.0391 9.72435C11.3945 9.71463 10.8472 9.72435 10.5369 9.8767C10.3309 9.97996 10.173 10.2064 10.2688 10.2194C10.3892 10.2356 10.6592 10.2934 10.8036 10.4907C10.9893 10.7463 10.9838 11.3191 10.9838 11.3191C10.9838 11.3191 11.0898 12.8986 10.7337 13.0944C10.4892 13.2287 10.1549 12.9546 9.43578 11.6979C9.06858 11.0552 8.79121 10.3448 8.79121 10.3448C8.79121 10.3448 8.7375 10.2129 8.64026 10.1406C8.52449 10.055 8.36243 10.0277 8.36243 10.0277L6.64265 10.0388C6.64265 10.0388 6.38427 10.0462 6.28935 10.1601C6.20507 10.261 6.2824 10.4694 6.2824 10.4694C6.2824 10.4694 7.62942 13.6557 9.15471 15.2606C10.5531 16.734 12.1423 16.6363 12.1423 16.6363H12.8624C12.8624 16.6363 13.0795 16.6113 13.1907 16.4918C13.2944 16.3807 13.2898 16.1719 13.2898 16.1719C13.2898 16.1719 13.2754 15.1953 13.7227 15.0518Z" fill="currentColor"/>
  </symbol>
  <symbol id="ok" width="25" height="25" viewBox="0 0 25 25" fill="none" xmlns="http://www.w3.org/2000/svg">
    <path d="M12.6804 6.88882C13.5788 6.88882 14.3096 7.64312 14.3096 8.57064C14.3096 9.49536 13.5788 10.2497 12.6804 10.2497C11.7819 10.2497 11.0512 9.49536 11.0512 8.57064C11.0512 7.64312 11.7819 6.88882 12.6804 6.88882ZM12.6804 12.6299C14.8508 12.6299 16.6153 10.8084 16.6153 8.57064C16.6153 6.33008 14.8508 4.50858 12.6804 4.50858C10.5099 4.50858 8.74809 6.33008 8.74809 8.57064C8.74809 10.8084 10.5099 12.6299 12.6804 12.6299ZM14.2717 15.9432C15.0727 15.7533 15.844 15.4264 16.5558 14.9654C17.0943 14.6162 17.2567 13.8815 16.9184 13.3255C16.5774 12.7668 15.8684 12.5992 15.3271 12.9512C13.7169 13.996 11.6438 13.996 10.0309 12.9512C9.49232 12.5992 8.78057 12.7668 8.44228 13.3255C8.10399 13.8815 8.26637 14.6162 8.80492 14.9654C9.51668 15.4264 10.288 15.7533 11.089 15.9432L8.88882 18.2117C8.43957 18.6755 8.43957 19.4298 8.88882 19.8936C9.11615 20.1254 9.40843 20.2428 9.70342 20.2428C9.9984 20.2428 10.2934 20.1254 10.5207 19.8936L12.6804 17.6642L14.8427 19.8936C15.2919 20.3601 16.0199 20.3601 16.4719 19.8936C16.9211 19.4298 16.9211 18.6755 16.4719 18.2117L14.2717 15.9432Z" fill="currentColor"/>
  </symbol>
  <symbol id="reddit" width="25" height="25" viewBox="0 0 25 25" fill="none" xmlns="http://www.w3.org/2000/svg">
    <path d="M13.8509 5.55566C13.4055 5.55566 12.9876 5.7816 12.7195 6.10741C12.4514 6.43323 12.3037 6.8304 12.196 7.24897C12.0251 7.92201 11.9723 8.66877 11.9596 9.34181C10.7079 9.42505 9.57444 9.79606 8.63303 10.3692C8.25098 10.0481 7.79083 9.86978 7.34968 9.87454C6.84731 9.87929 6.37028 10.0957 6.01566 10.5404C5.3381 11.3895 5.4162 12.7784 6.20141 13.6036C6.15286 13.8581 6.11698 14.1197 6.11698 14.3837C6.11698 17.1805 8.97498 19.4446 12.5 19.4446C16.025 19.4446 18.883 17.1781 18.883 14.3837C18.883 14.1197 18.8471 13.8581 18.7986 13.6036C19.5838 12.7784 19.6619 11.3895 18.9843 10.5404C18.6297 10.0957 18.1527 9.87929 17.6503 9.87454C17.2091 9.86978 16.749 10.0481 16.3669 10.3692C15.4298 9.79843 14.3026 9.42743 13.0572 9.34181C13.0741 8.72109 13.1184 8.07659 13.243 7.59143C13.3211 7.28702 13.414 7.06584 13.5132 6.94455C13.6124 6.82326 13.6841 6.77332 13.8509 6.77332C14.2118 6.77332 14.2583 6.88985 14.4757 7.17286C14.5854 7.31556 14.7121 7.49393 14.9147 7.66754C15.1174 7.84115 15.4171 7.99098 15.7421 7.99098V6.77332C15.6514 6.77332 15.6345 6.77094 15.5733 6.71624C15.5121 6.66154 15.4276 6.5355 15.3031 6.37378C15.054 6.04796 14.5707 5.55566 13.8509 5.55566ZM17.3632 5.66982C16.5231 5.66982 15.8435 6.43561 15.8435 7.38215C15.8435 8.32869 16.5231 9.09448 17.3632 9.09448C18.2033 9.09448 18.883 8.32869 18.883 7.38215C18.883 6.43561 18.2033 5.66982 17.3632 5.66982ZM17.3632 6.27865C17.9036 6.27865 18.3426 6.77332 18.3426 7.38215C18.3426 7.99098 17.9036 8.48565 17.3632 8.48565C16.8229 8.48565 16.3838 7.99098 16.3838 7.38215C16.3838 6.77332 16.8229 6.27865 17.3632 6.27865ZM12.5 10.2931C15.491 10.2931 18.0218 12.1695 18.0218 14.3837C18.0218 16.6002 15.491 18.4742 12.5 18.4742C9.50901 18.4742 6.97818 16.6002 6.97818 14.3837C6.97818 12.1695 9.50901 10.2931 12.5 10.2931ZM7.36656 10.8449C7.51643 10.8472 7.67263 10.8853 7.82249 10.959C7.28002 11.4228 6.84942 11.9555 6.55602 12.5572C6.35339 12.0863 6.40827 11.4989 6.65734 11.1873C6.83887 10.959 7.09005 10.8425 7.36656 10.8449ZM17.6334 10.8449C17.9099 10.8425 18.1611 10.959 18.3426 11.1873C18.5917 11.4989 18.6466 12.0863 18.4439 12.5572C18.1506 11.9555 17.72 11.4228 17.1775 10.959C17.3273 10.8853 17.4835 10.8472 17.6334 10.8449ZM10.3385 12.3669C9.79819 12.3669 9.35914 12.8616 9.35914 13.4704C9.35914 14.0793 9.79819 14.5739 10.3385 14.5739C10.8789 14.5739 11.3179 14.0793 11.3179 13.4704C11.3179 12.8616 10.8789 12.3669 10.3385 12.3669ZM14.6614 12.3669C14.1211 12.3669 13.682 12.8616 13.682 13.4704C13.682 14.0793 14.1211 14.5739 14.6614 14.5739C15.2018 14.5739 15.6408 14.0793 15.6408 13.4704C15.6408 12.8616 15.2018 12.3669 14.6614 12.3669ZM9.81507 16.115C10.1591 16.9165 11.223 17.6942 12.5 17.6942C13.777 17.6942 14.8577 16.9165 15.2018 16.115C14.577 16.5693 13.5913 16.8761 12.5 16.8761C11.4087 16.8761 10.4399 16.5693 9.81507 16.115Z" fill="currentColor"/>
  </symbol>
  <symbol id="play" viewBox="0 0 12 22">
    <g fill="none">
      <path d="M12 11L0 0V22L12 11Z" fill="currentColor"></path>
    </g>
  </symbol>
  <symbol id="envelope" viewBox="0 0 22 22" fill="none">
    <path d="M21 5.55556V16.4444C21 17.3036 20.3604 18 19.5714 18H2.42857C1.63959 18 1 17.3036 1 16.4444V5.55556M21 5.55556C21 4.69645 20.3604 4 19.5714 4H2.42857C1.63959 4 1 4.69645 1 5.55556M21 5.55556L12.8594 13.1534C11.7895 14.152 10.2106 14.152 9.14062 13.1534L1 5.55556" stroke="currentColor" stroke-linecap="round" stroke-linejoin="round"/>
  </symbol>
  <symbol id="phone" viewBox="0 0 22 22" fill="none" xmlns="http://www.w3.org/2000/svg">
    <g clip-path="url(#clip0_131_2514)">
      <path d="M19.3236 20.0443C19.0034 20.6753 18.3438 21.0672 17.6426 20.9904C17.3412 20.9575 17.0402 20.9171 16.7396 20.8693C12.8229 20.2465 9.20304 18.3949 6.39895 15.5797C3.59486 12.7646 1.75046 9.1305 1.1301 5.19831C1.08254 4.89683 1.04236 4.59477 1.00952 4.29242C0.933062 3.58844 1.32346 2.92622 1.95195 2.60473L4.70244 1.19777C5.76693 0.653244 7.05498 1.28842 7.42933 2.42743C7.65638 3.11826 7.92452 3.79805 8.23342 4.4631C8.38821 4.79636 8.5524 5.12412 8.72567 5.44606C9.13588 6.20824 8.85917 7.18583 8.0736 7.54431C6.93267 8.06496 6.66094 9.56938 7.54713 10.4591L11.4995 14.427C12.3857 15.3167 13.8842 15.0439 14.4028 13.8985C14.7796 13.0663 15.8009 12.765 16.6118 13.1807C16.8084 13.2814 17.0071 13.3788 17.2078 13.4728C17.9681 13.8287 18.7478 14.1308 19.5413 14.3784C20.6964 14.7389 21.3521 16.0475 20.8029 17.1296L19.3236 20.0443Z" stroke="#2D383F" stroke-linecap="round" stroke-linejoin="round"/>
    </g>
    <defs>
      <clipPath id="clip0_131_2514">
        <rect width="22" height="22" fill="white"/>
      </clipPath>
    </defs>
  </symbol>
  <symbol id="next" viewBox="0 0 22 22" fill="none">
    <path d="M3.4375 2.75C3.55849 2.75003 3.67732 2.78205 3.78194 2.84281L16.8444 10.4053C16.9486 10.4657 17.0351 10.5525 17.0952 10.6569C17.1553 10.7612 17.187 10.8796 17.187 11C17.187 11.1204 17.1553 11.2388 17.0952 11.3431C17.0351 11.4475 16.9486 11.5343 16.8444 11.5947L3.78194 19.1572C3.67746 19.2177 3.5589 19.2496 3.43817 19.2497C3.31745 19.2498 3.19882 19.2181 3.09423 19.1579C2.98963 19.0976 2.90275 19.0108 2.84232 18.9063C2.78189 18.8018 2.75005 18.6832 2.75 18.5625L2.75 3.4375C2.75 3.25516 2.82243 3.08029 2.95136 2.95136C3.0803 2.82243 3.25516 2.75 3.4375 2.75ZM20.625 19.25L19.25 19.25L19.25 2.75L20.625 2.75L20.625 19.25Z" fill="currentColor"/>
  </symbol>
  <symbol id="play-audio" viewBox="0 0 47 47" fill="none">
    <path d="M47 23.5C47 29.7326 44.5241 35.7099 40.117 40.117C35.7099 44.5241 29.7326 47 23.5 47C17.2674 47 11.2901 44.5241 6.88299 40.117C2.47589 35.7099 0 29.7326 0 23.5C0 17.2674 2.47589 11.2901 6.88299 6.88299C11.2901 2.47589 17.2674 0 23.5 0C29.7326 0 35.7099 2.47589 40.117 6.88299C44.5241 11.2901 47 17.2674 47 23.5ZM19.9456 14.9607C19.726 14.8043 19.4676 14.7114 19.1987 14.6922C18.9298 14.6729 18.6607 14.728 18.4211 14.8515C18.1814 14.975 17.9804 15.162 17.84 15.3922C17.6995 15.6223 17.6252 15.8867 17.625 16.1562V30.8438C17.6252 31.1133 17.6995 31.3777 17.84 31.6078C17.9804 31.838 18.1814 32.025 18.4211 32.1485C18.6607 32.272 18.9298 32.3271 19.1987 32.3078C19.4676 32.2886 19.726 32.1957 19.9456 32.0393L30.2269 24.6956C30.4173 24.5597 30.5725 24.3803 30.6795 24.1724C30.7866 23.9644 30.8425 23.7339 30.8425 23.5C30.8425 23.2661 30.7866 23.0356 30.6795 22.8276C30.5725 22.6197 30.4173 22.4403 30.2269 22.3044L19.9456 14.9607Z" fill="currentColor"/>
  </symbol>
  <symbol id="prev" viewBox="0 0 22 22" fill="none">
    <path d="M18.5625 19.25C18.4415 19.25 18.3227 19.218 18.2181 19.1572L5.15556 11.5947C5.05138 11.5343 4.9649 11.4475 4.90479 11.3431C4.84467 11.2388 4.81303 11.1204 4.81303 11C4.81303 10.8796 4.84467 10.7612 4.90479 10.6569C4.9649 10.5525 5.05138 10.4657 5.15556 10.4053L18.2181 2.84281C18.3225 2.78233 18.4411 2.75043 18.5618 2.75031C18.6826 2.75019 18.8012 2.78186 18.9058 2.84214C19.0104 2.90242 19.0973 2.98917 19.1577 3.09369C19.2181 3.1982 19.2499 3.31678 19.25 3.4375V18.5625C19.25 18.7448 19.1776 18.9197 19.0486 19.0486C18.9197 19.1776 18.7448 19.25 18.5625 19.25ZM1.375 2.75H2.75V19.25H1.375V2.75Z" fill="currentColor"/>
  </symbol>
  <symbol id="repeat" viewBox="0 0 25 25" fill="none">
    <path d="M20.1449 8.18493C20.9716 9.05095 21.5321 10.1362 21.7599 11.3116C21.9876 12.487 21.873 13.7031 21.4296 14.8152C20.9862 15.9273 20.2327 16.8887 19.2587 17.5849C18.2847 18.2812 17.1313 18.6831 15.9355 18.7427L15.6246 18.7506L10.4793 18.749L12.273 20.5443C12.4024 20.6736 12.4824 20.8442 12.4989 21.0263C12.5155 21.2085 12.4676 21.3907 12.3636 21.5412L12.273 21.649C12.1437 21.7784 11.9732 21.8584 11.791 21.8749C11.6088 21.8915 11.4266 21.8436 11.2761 21.7396L11.1683 21.649L8.04019 18.5209C7.91101 18.3914 7.83134 18.2207 7.81507 18.0386C7.79879 17.8564 7.84694 17.6743 7.95113 17.524L8.04019 17.4162L11.1683 14.2881C11.3061 14.1496 11.4908 14.0679 11.6859 14.0588C11.881 14.0498 12.0724 14.1142 12.2223 14.2393C12.3723 14.3644 12.47 14.5411 12.4962 14.7346C12.5223 14.9282 12.475 15.1245 12.3636 15.2849L12.273 15.3943L10.4793 17.1865H15.6246C16.82 17.1866 17.9702 16.73 18.8401 15.9101C19.71 15.0901 20.2337 13.9689 20.3043 12.7756L20.3121 12.5006C20.3139 11.2665 19.8275 10.0819 18.9589 9.20525C18.8164 9.06095 18.7355 8.86686 18.7334 8.66401C18.7314 8.46117 18.8083 8.26548 18.9479 8.11833C19.0876 7.97118 19.279 7.88412 19.4816 7.87555C19.6843 7.86699 19.8824 7.93759 20.0339 8.07243L20.1464 8.18493H20.1449ZM13.7246 3.26149L13.8339 3.35056L16.9605 6.47868L17.0511 6.58806C17.1412 6.71852 17.1894 6.87329 17.1894 7.03181C17.1894 7.19033 17.1412 7.34509 17.0511 7.47556L16.9605 7.58493L13.8339 10.7115L13.7246 10.8021C13.5941 10.8922 13.4393 10.9404 13.2808 10.9404C13.1223 10.9404 12.9675 10.8922 12.8371 10.8021L12.7277 10.7115L12.6386 10.6021C12.5486 10.4717 12.5004 10.3169 12.5004 10.1584C12.5004 9.99985 12.5486 9.84509 12.6386 9.71462L12.7277 9.60525L14.5214 7.81306H9.37456C8.17892 7.81299 7.02845 8.26982 6.15853 9.09006C5.28861 9.91031 4.76502 11.032 4.69488 12.2256L4.68706 12.5006C4.68706 13.7818 5.20113 14.9412 6.03238 15.7881C6.16401 15.9384 6.23305 16.1334 6.22531 16.333C6.21758 16.5327 6.13365 16.7218 5.99078 16.8614C5.84792 17.0011 5.65697 17.0807 5.4572 17.0839C5.25744 17.0871 5.06403 17.0137 4.91675 16.8787C4.07305 16.0192 3.49566 14.9342 3.25403 13.7543C3.0124 12.5744 3.11682 11.3499 3.55474 10.2279C3.99266 9.10596 4.74542 8.13444 5.72246 7.43021C6.6995 6.72598 7.85921 6.31905 9.06206 6.25837L9.37456 6.25056L14.5214 6.249L12.7277 4.45681L12.6386 4.34743C12.5357 4.19704 12.4886 4.01541 12.5055 3.83397C12.5223 3.65252 12.6021 3.48268 12.731 3.35382C12.8598 3.22497 13.0297 3.14521 13.2111 3.12835C13.3925 3.11149 13.5742 3.15859 13.7246 3.26149Z" fill="currentColor"/>
  </symbol>
  <symbol id="share" viewBox="0 0 17 17" fill="none">
    <path d="M8.50033 2.125V10.625M8.50033 2.125L5.66699 4.95833M8.50033 2.125L11.3337 4.95833M1.41699 12.0417L1.85687 13.8019C1.93348 14.1084 2.11033 14.3804 2.35931 14.5749C2.60829 14.7693 2.91512 14.875 3.23103 14.875H13.7696C14.0855 14.875 14.3924 14.7693 14.6413 14.5749C14.8903 14.3804 15.0672 14.1084 15.1438 13.8019L15.5837 12.0417" stroke="currentColor" stroke-width="1.16667" stroke-linecap="round" stroke-linejoin="round"/>
  </symbol>
  <symbol id="shuffle" viewBox="0 0 25 25" fill="none">
    <path d="M23.2129 17.4121C23.3596 17.5602 23.4419 17.7603 23.4419 17.9688C23.4419 18.1772 23.3596 18.3773 23.2129 18.5254L20.8691 20.8691C20.7198 21.0135 20.5202 21.0942 20.3125 21.0942C20.1048 21.0942 19.9052 21.0135 19.7559 20.8691C19.6092 20.721 19.5269 20.521 19.5269 20.3125C19.5269 20.104 19.6092 19.904 19.7559 19.7559L20.7715 18.75H19.6191C18.4996 18.748 17.3967 18.4795 16.4016 17.9667C15.4064 17.4538 14.5477 16.7114 13.8965 15.8008L9.82422 10.1074C9.31888 9.3997 8.65233 8.82244 7.87968 8.42338C7.10703 8.02432 6.25048 7.81492 5.38086 7.8125H3.125C2.9178 7.8125 2.71909 7.73019 2.57257 7.58368C2.42606 7.43717 2.34375 7.23845 2.34375 7.03125C2.34375 6.82405 2.42606 6.62534 2.57257 6.47882C2.71909 6.33231 2.9178 6.25 3.125 6.25H5.38086C6.50037 6.25197 7.60331 6.52049 8.59844 7.03333C9.59357 7.54618 10.4523 8.28862 11.1035 9.19922L15.1758 14.8926C15.6811 15.6003 16.3477 16.1776 17.1203 16.5766C17.893 16.9757 18.7495 17.1851 19.6191 17.1875H20.7715L19.7559 16.1816C19.6313 16.0298 19.5676 15.8371 19.5772 15.641C19.5869 15.4449 19.6691 15.2593 19.808 15.1205C19.9468 14.9816 20.1324 14.8994 20.3285 14.8897C20.5246 14.8801 20.7173 14.9438 20.8691 15.0684L23.2129 17.4121ZM13.9648 10.4492C14.0487 10.5093 14.1436 10.5521 14.2441 10.5753C14.3446 10.5985 14.4487 10.6015 14.5504 10.5843C14.6521 10.567 14.7493 10.5298 14.8365 10.4748C14.9238 10.4198 14.9992 10.348 15.0586 10.2637L15.1758 10.1074C15.6811 9.3997 16.3477 8.82244 17.1203 8.42338C17.893 8.02432 18.7495 7.81492 19.6191 7.8125H20.7715L19.7559 8.81836C19.6092 8.96648 19.5269 9.16653 19.5269 9.375C19.5269 9.58348 19.6092 9.78352 19.7559 9.93164C19.9052 10.076 20.1048 10.1567 20.3125 10.1567C20.5202 10.1567 20.7198 10.076 20.8691 9.93164L23.2129 7.58789C23.3596 7.43977 23.4419 7.23973 23.4419 7.03125C23.4419 6.82278 23.3596 6.62273 23.2129 6.47461L20.8691 4.13086C20.7173 4.00628 20.5246 3.94261 20.3285 3.95225C20.1324 3.96188 19.9468 4.04412 19.808 4.18298C19.6691 4.32183 19.5869 4.50737 19.5772 4.70351C19.5676 4.89964 19.6313 5.09235 19.7559 5.24414L20.7715 6.25H19.6191C18.4996 6.25197 17.3967 6.52049 16.4016 7.03333C15.4064 7.54618 14.5477 8.28862 13.8965 9.19922L13.7891 9.35547C13.7285 9.43873 13.685 9.53313 13.6611 9.63326C13.6372 9.73338 13.6332 9.83725 13.6496 9.93889C13.6659 10.0405 13.7022 10.1379 13.7563 10.2255C13.8104 10.3131 13.8813 10.3891 13.9648 10.4492ZM11.0352 14.5508C10.9513 14.4907 10.8564 14.4479 10.7559 14.4247C10.6554 14.4015 10.5513 14.3985 10.4496 14.4157C10.3479 14.433 10.2507 14.4702 10.1635 14.5252C10.0762 14.5802 10.0008 14.652 9.94141 14.7363L9.82422 14.8926C9.31888 15.6003 8.65233 16.1776 7.87968 16.5766C7.10703 16.9757 6.25048 17.1851 5.38086 17.1875H3.125C2.9178 17.1875 2.71909 17.2698 2.57257 17.4163C2.42606 17.5628 2.34375 17.7616 2.34375 17.9688C2.34375 18.176 2.42606 18.3747 2.57257 18.5212C2.71909 18.6677 2.9178 18.75 3.125 18.75H5.38086C6.50037 18.748 7.60331 18.4795 8.59844 17.9667C9.59357 17.4538 10.4523 16.7114 11.1035 15.8008L11.2109 15.6445C11.2715 15.5613 11.315 15.4669 11.3389 15.3667C11.3628 15.2666 11.3668 15.1628 11.3504 15.0611C11.3341 14.9595 11.2978 14.8621 11.2437 14.7745C11.1896 14.6869 11.1187 14.6109 11.0352 14.5508Z" fill="currentColor"/>
  </symbol>
  <symbol id="heart" viewBox="0 0 17 17" fill="none">
    <path d="M14.3232 4.70821C14.1007 4.19296 13.7799 3.72605 13.3786 3.33361C12.9771 2.93999 12.5036 2.62719 11.9841 2.41222C11.4453 2.18842 10.8675 2.07386 10.2841 2.07521C9.46562 2.07521 8.66709 2.29933 7.97314 2.72267C7.80713 2.82394 7.64941 2.93517 7.5 3.05636C7.35059 2.93517 7.19287 2.82394 7.02686 2.72267C6.33291 2.29933 5.53437 2.07521 4.71592 2.07521C4.12656 2.07521 3.55547 2.1881 3.01592 2.41222C2.49463 2.62804 2.0248 2.93849 1.62139 3.33361C1.21962 3.72561 0.898684 4.19263 0.676758 4.70821C0.445996 5.24445 0.328125 5.81388 0.328125 6.39991C0.328125 6.95275 0.441016 7.52882 0.665137 8.11486C0.852734 8.6046 1.12168 9.11261 1.46533 9.6256C2.00986 10.4374 2.75859 11.2841 3.68828 12.1424C5.22891 13.5651 6.75459 14.548 6.81934 14.5878L7.21279 14.8401C7.38711 14.9514 7.61123 14.9514 7.78555 14.8401L8.179 14.5878C8.24375 14.5463 9.76777 13.5651 11.3101 12.1424C12.2397 11.2841 12.9885 10.4374 13.533 9.6256C13.8767 9.11261 14.1473 8.6046 14.3332 8.11486C14.5573 7.52882 14.6702 6.95275 14.6702 6.39991C14.6719 5.81388 14.554 5.24445 14.3232 4.70821ZM7.5 13.527C7.5 13.527 1.58984 9.74015 1.58984 6.39991C1.58984 4.70821 2.98936 3.33693 4.71592 3.33693C5.92949 3.33693 6.98203 4.01427 7.5 5.00372C8.01797 4.01427 9.07051 3.33693 10.2841 3.33693C12.0106 3.33693 13.4102 4.70821 13.4102 6.39991C13.4102 9.74015 7.5 13.527 7.5 13.527Z" fill="currentColor"/>
  </symbol>
  <symbol id="sun" viewBox="0 0 20 20" fill="none">
    <path fill="#fff" d="M13.545 6.455c-.9-.9-2.17-1.481-3.545-1.481a4.934 4.934 0 0 0-3.545 1.481c-.9.9-1.481 2.17-1.481 3.545 0 1.376.582 2.646 1.481 3.545.9.9 2.17 1.482 3.545 1.482a4.934 4.934 0 0 0 3.545-1.482c.9-.9 1.482-2.17 1.482-3.545a4.934 4.934 0 0 0-1.482-3.545Zm-.952 6.138A3.66 3.66 0 0 1 10 13.65a3.66 3.66 0 0 1-2.593-1.058A3.66 3.66 0 0 1 6.35 10a3.66 3.66 0 0 1 1.058-2.593A3.66 3.66 0 0 1 10 6.35a3.66 3.66 0 0 1 2.593 1.058A3.66 3.66 0 0 1 13.65 10a3.66 3.66 0 0 1-1.058 2.593ZM19.312 9.312h-2.037a.7.7 0 0 0-.688.688.7.7 0 0 0 .688.688h2.037A.7.7 0 0 0 20 10a.7.7 0 0 0-.688-.688ZM10 16.587a.7.7 0 0 0-.688.688v2.037A.7.7 0 0 0 10 20a.7.7 0 0 0 .688-.688v-2.037a.7.7 0 0 0-.688-.688ZM17.064 16.111l-1.456-1.455c-.238-.264-.687-.264-.952 0a.67.67 0 0 0 0 .952l1.455 1.455a.67.67 0 0 0 .953 0 .67.67 0 0 0 0-.952ZM10 0a.7.7 0 0 0-.688.688v2.037a.7.7 0 0 0 .688.688.7.7 0 0 0 .688-.688V.688A.7.7 0 0 0 10 0ZM17.09 2.937a.67.67 0 0 0-.952 0l-1.456 1.455a.67.67 0 0 0 0 .952c.239.264.688.264.953 0l1.455-1.455a.67.67 0 0 0 0-.952ZM2.725 9.312H.688A.7.7 0 0 0 0 10c0 .37.291.688.688.688h2.037A.7.7 0 0 0 3.413 10a.7.7 0 0 0-.688-.688ZM5.317 14.656c-.238-.264-.687-.264-.952 0L2.91 16.111a.67.67 0 0 0 0 .952.67.67 0 0 0 .952 0l1.455-1.455a.67.67 0 0 0 0-.952ZM5.317 4.392 3.862 2.937a.67.67 0 0 0-.952 0 .67.67 0 0 0 0 .952l1.455 1.455a.67.67 0 0 0 .952 0 .67.67 0 0 0 0-.952Z"/>
  </symbol>
  <symbol id="moon" viewBox="0 0 12 12" fill="none">
      <g clip-path="url(#a)">
      <path fill="#fff" d="M11.197 6.754a.382.382 0 0 0-.321.07c-.362.308-.78.56-1.24.727a3.874 3.874 0 0 1-1.409.252c-1.13 0-2.16-.462-2.9-1.203a4.121 4.121 0 0 1-1.199-2.91c0-.476.084-.937.223-1.357a3.76 3.76 0 0 1 .67-1.203.358.358 0 0 0-.056-.504c-.098-.07-.21-.098-.32-.07a5.625 5.625 0 0 0-2.956 1.987 5.553 5.553 0 0 0 .474 7.289 5.49 5.49 0 0 0 3.903 1.622 5.532 5.532 0 0 0 3.416-1.189 5.518 5.518 0 0 0 1.952-3.063c.07-.21-.042-.406-.237-.448ZM9.064 9.678A4.776 4.776 0 0 1 2.707 9.3a4.81 4.81 0 0 1-1.409-3.4c0-1.105.363-2.112.99-2.924a4.797 4.797 0 0 1 1.603-1.343 4.67 4.67 0 0 0-.46 2.07c0 1.33.544 2.547 1.408 3.415A4.808 4.808 0 0 0 8.241 8.53c.586 0 1.143-.098 1.66-.294.18-.07.362-.14.529-.224a5.086 5.086 0 0 1-1.366 1.665Z"/>
    </g>
    <defs>
      <clipPath id="a">
        <path fill="#fff" d="M0 0h12v12H0z"/>
      </clipPath>
    </defs>
  </symbol>
  <symbol id="full-star" viewBox="0 0 15 14" fill="none">
    <g clip-path="url(#a)">
      <path fill="#fff" d="m7.5 11.041 4.635 2.61-1.226-4.921L15 5.42 9.607 4.99 7.5.35 5.393 4.99 0 5.421 4.091 8.73l-1.226 4.92L7.5 11.041Z"/>
    </g>
    <defs>
      <clipPath id="a">
        <path fill="#fff" d="M0 0h15v14H0z"/>
      </clipPath>
    </defs>
  </symbol>
  <symbol id="empty-star" viewBox="0 0 15 14" fill="none">
    <g clip-path="url(#a)">
      <path stroke="#fff" d="m7.745 10.605-.245-.138-.245.138-3.624 2.04.945-3.794.078-.31-.248-.2-3.118-2.522 4.145-.332.294-.023.122-.268L7.5 1.559l1.652 3.637.121.268.294.023 4.145.332-3.118 2.522-.247.2.077.31.945 3.794-3.624-2.04Z"/>
    </g>
    <defs>
      <clipPath id="a">
        <path fill="#fff" d="M0 0h15v14H0z"/>
      </clipPath>
    </defs>
  </symbol>
  <symbol id="pin" viewBox="0 0 22 22" fill="none">
    <path stroke="currentColor" stroke-linecap="round" stroke-linejoin="round" d="M18.5 8.147C18.5 4.2 15.142 1 11 1 6.858 1 3.5 4.2 3.5 8.147v.43c0 1.58.518 3.12 1.481 4.405l6.004 8.01c.007.01.023.01.03 0l6.004-8.01A7.338 7.338 0 0 0 18.5 8.578v-.43Z"/>
    <path stroke="currentColor" stroke-linecap="round" stroke-linejoin="round" d="M9.534 5.289a3.53 3.53 0 0 1 2.932 0c.926.425 1.6 1.23 1.828 2.184a3.105 3.105 0 0 1-.652 2.724A3.443 3.443 0 0 1 11 11.41c-1.028 0-2-.447-2.642-1.213a3.105 3.105 0 0 1-.652-2.724c.229-.955.902-1.759 1.828-2.184Z"/>
  </symbol>
  <symbol id="pin-filled" viewBox="0 0 9 12" fill="none">
    <path d="M4.49981 0C2.01874 0 0 1.98191 0 4.41796C0 5.05338 0.132472 5.66006 0.39354 6.2213C1.51862 8.63833 3.67571 11.1902 4.31017 11.9146C4.35771 11.9688 4.42701 12 4.49994 12C4.57287 12 4.64217 11.9688 4.6897 11.9146C5.32392 11.1903 7.48101 8.63857 8.60646 6.2213C8.86765 5.66006 9 5.05338 9 4.41796C8.99975 1.98191 6.98101 0 4.49981 0ZM4.49981 6.71267C3.21099 6.71267 2.16234 5.68315 2.16234 4.41784C2.16234 3.15241 3.21099 2.12289 4.49981 2.12289C5.78864 2.12289 6.83728 3.15241 6.83728 4.41784C6.83741 5.68315 5.78876 6.71267 4.49981 6.71267Z" fill="white"/>
  </symbol>
  <symbol id="process-boot" viewBox="0 0 24 24" fill="none">
    <path d="M23.6583 15.6155C24.404 13.2805 23.7904 10.6301 23.1385 8.79354C23.1342 8.72248 23.1123 8.65361 23.0746 8.59327C22.853 7.99671 22.6484 7.50669 22.4737 7.15302C22.7953 7.02497 23.0075 6.71509 23.0106 6.36898V2.8195C23.0106 2.34881 22.6291 1.96729 22.1584 1.96729H11.6889C11.4536 1.96686 11.2625 2.15728 11.2621 2.39265C11.2621 2.40144 11.2624 2.41023 11.2628 2.41896C11.4077 4.97561 11.2202 6.70987 10.6791 7.9328C10.6683 7.94494 10.6583 7.95778 10.6492 7.97115C10.6476 7.9924 10.6476 8.01381 10.6492 8.03506C10.4427 8.48024 10.1633 8.88776 9.82259 9.24095L9.78424 9.26652C9.78424 9.26652 9.78424 9.26652 9.78424 9.29634C9.28468 9.77279 8.70853 10.1617 8.07981 10.4468C6.98439 10.9329 5.86021 11.3512 4.71355 11.6996L4.49624 11.772C0.512129 13.093 -0.00772321 15.4877 0.000798953 16.6893C-0.000266318 16.7064 -0.000266318 16.7234 0.000798953 16.7404V19.7829C0.00143811 19.9309 0.07883 20.068 0.205331 20.1451C1.18176 20.7392 2.23574 21.1951 3.33722 21.5001C3.56375 21.5638 3.79907 21.4318 3.86278 21.2052C3.87476 21.1625 3.88003 21.1182 3.87838 21.074V20.976H4.50476V21.4021C4.50204 21.6132 4.65433 21.7944 4.86269 21.8282C5.23341 21.8878 5.60412 21.9347 5.96631 21.9645C6.08498 21.9745 6.20243 21.9343 6.29015 21.8537C6.37783 21.7724 6.42731 21.658 6.42651 21.5384V21.0015H7.05289V21.6066C7.05289 21.8419 7.24368 22.0327 7.479 22.0327C7.83693 22.0327 8.19486 22.0327 8.57835 21.9816C8.8003 21.9638 8.97107 21.7781 8.97037 21.5555V21.0015H9.59675V21.3765C9.59372 21.6118 9.782 21.8051 10.0173 21.8081C10.042 21.8084 10.0666 21.8066 10.091 21.8026C10.8732 21.6828 11.6442 21.499 12.3963 21.2529L12.4645 21.2231C15.4472 19.5187 17.3391 20.9206 17.4158 20.9802C17.4902 21.038 17.5816 21.0694 17.6758 21.0697H18.2041C18.4395 21.0697 18.6302 20.8789 18.6302 20.6436V19.9235H19.2396V20.6351C19.2396 20.8704 19.4304 21.0612 19.6657 21.0612H21.0378C21.2731 21.0612 21.4639 20.8704 21.4639 20.6351V19.9235H22.0945V20.6351C22.0945 20.8704 22.2853 21.0612 22.5206 21.0612H23.5731C23.8084 21.0612 23.9992 20.8704 23.9992 20.6351V16.0416C24.0034 15.8359 23.8599 15.6566 23.6583 15.6155ZM13.5468 2.82802H13.8962H22.1371V6.3562H13.5468V2.82802ZM8.1906 11.3246L8.19486 11.3502C8.54416 11.6338 8.86651 11.949 9.15786 12.2919C9.08058 12.4204 9.04073 12.568 9.04281 12.718C9.03988 13.1675 9.40191 13.5342 9.85135 13.5371C10.3008 13.5401 10.6676 13.178 10.6705 12.7286C10.6733 12.3051 10.3509 11.9504 9.92912 11.9126C9.6596 11.5452 9.35254 11.2067 9.01298 10.9028C9.39377 10.686 9.75202 10.432 10.0825 10.1443C10.4958 10.532 10.8803 10.9493 11.233 11.3928C11.0848 11.8171 11.3086 12.2813 11.7329 12.4296C12.1572 12.5778 12.6214 12.354 12.7697 11.9297C12.9179 11.5053 12.6941 11.0412 12.2698 10.8929C12.1817 10.8621 12.0891 10.8467 11.9957 10.8474H11.8935C11.5197 10.3768 11.1125 9.93396 10.6748 9.52218C10.8779 9.27211 11.0576 9.00398 11.2117 8.7211C11.8714 9.06449 12.5089 9.44873 13.1207 9.87159C13.1165 10.3258 13.4813 10.6973 13.9354 10.7015C14.3896 10.7057 14.7612 10.3409 14.7654 9.88677C14.7696 9.43259 14.4048 9.06102 13.9506 9.05682C13.8209 9.05559 13.6927 9.0851 13.5766 9.14294C12.9327 8.70704 12.2624 8.31145 11.5696 7.95836C12.0341 6.72265 12.2344 5.08214 12.1406 2.84507H12.6988V6.37324C12.6988 6.84393 13.0803 7.22546 13.551 7.22546H21.5363C21.6471 7.4513 21.8346 7.84331 22.0391 8.35464H21.8644C19.2758 8.37334 17.1925 10.4869 17.2112 13.0755C17.2218 14.5465 17.9224 15.9272 19.1032 16.8044C15.656 17.712 10.4703 18.79 6.10693 18.5088C6.91227 15.2917 5.94927 13.3103 5.32289 12.441C6.2983 12.1211 7.25561 11.7484 8.1906 11.3246ZM4.46641 12.6839C4.92661 13.2251 6.12823 15.0445 5.24619 18.3895C3.71082 18.2688 2.2196 17.8182 0.874321 17.0686C0.859034 16.9712 0.849074 16.873 0.844493 16.7745V16.7447C0.810404 15.8371 1.15129 13.8727 4.46641 12.6839ZM22.9467 20.209V19.4974C22.9467 19.262 22.7559 19.0713 22.5206 19.0713H21.042C20.8067 19.0713 20.6159 19.262 20.6159 19.4974V20.209H20.0918V19.4974C20.0918 19.262 19.901 19.0713 19.6657 19.0713H18.1956C17.9603 19.0713 17.7695 19.262 17.7695 19.4974V20.1919C17.19 19.8297 15.0722 18.7772 12.0682 20.4561C11.5337 20.6325 10.9886 20.7748 10.4362 20.8822V20.5882C10.4362 20.3529 10.2454 20.1621 10.0101 20.1621H8.54C8.30469 20.1621 8.1139 20.3529 8.1139 20.5882V21.172H7.89658V20.5754C7.89658 20.3401 7.70579 20.1493 7.47047 20.1493H5.99188C5.75656 20.1493 5.56577 20.3401 5.56577 20.5754V21.0825L5.34845 21.0527V20.5754C5.34845 20.3401 5.15767 20.1493 4.92235 20.1493H3.44375C3.22702 20.1478 3.04364 20.3091 3.01764 20.5243C2.26136 20.2753 1.53308 19.9482 0.844493 19.5485V18.023C2.70232 19.0073 5.10557 19.3781 7.66222 19.3781C14.4544 19.3781 22.2266 16.7788 23.1427 16.4677L23.147 20.209H22.9467ZM22.7379 15.7135C22.3757 15.8328 21.4852 16.1396 20.2537 16.4677C18.3473 15.5451 17.5497 13.2516 18.4724 11.3451C19.1036 10.041 20.4158 9.20393 21.8644 9.18129C22.0324 9.17895 22.2003 9.18747 22.3672 9.20686L22.3715 9.21964C22.9979 11.0263 23.5603 13.6043 22.7379 15.7135Z" fill="#2D383F"/>
    <path d="M15.1872 3.34375C14.5024 3.34375 13.9473 3.89892 13.9473 4.58372C13.9496 5.26757 14.5034 5.82135 15.1872 5.8237C15.872 5.8237 16.4272 5.26853 16.4272 4.58372C16.4272 3.89892 15.8721 3.34375 15.1872 3.34375ZM15.1872 4.97148C14.9731 4.97148 14.7995 4.7979 14.7995 4.58372C14.7995 4.36955 14.9731 4.19597 15.1872 4.19597C15.4014 4.19597 15.575 4.36955 15.575 4.58372C15.575 4.7979 15.4014 4.97148 15.1872 4.97148Z" fill="#2D383F"/>
  </symbol>
  <symbol id="process-forest" viewBox="0 0 23 23" fill="none">
    <g clip-path="url(#clip0_248_2173)">
      <path d="M22.6246 16.6365L18.1102 11.472H20.2913C20.546 11.4714 20.7519 11.2644 20.7514 11.0098C20.7511 10.9084 20.7175 10.8099 20.6556 10.7296L17.0312 5.96623H18.8757C19.1304 5.96589 19.3365 5.75919 19.3363 5.50454C19.3361 5.39271 19.2953 5.28475 19.2215 5.20077L14.7856 0.156126C14.6172 -0.0348923 14.3257 -0.0531642 14.1347 0.115317C14.1202 0.128056 14.1066 0.141716 14.0939 0.156126L9.65332 5.19616C9.4827 5.38522 9.49763 5.67682 9.68663 5.84744C9.77229 5.92473 9.88376 5.9671 9.99916 5.96623H11.8667L10.7508 7.42337L7.76273 4.02492C7.5943 3.8339 7.30288 3.81563 7.11186 3.98411C7.09739 3.99685 7.08379 4.01051 7.07105 4.02492L3.27604 8.33639C3.10796 8.52769 3.12681 8.81906 3.31811 8.98714C3.40209 9.06092 3.51005 9.10167 3.62188 9.10184H5.08362L2.04946 13.0721C1.89919 13.2777 1.94398 13.5662 2.14958 13.7165C2.22636 13.7726 2.31864 13.8036 2.41374 13.8053H4.11988L0.370984 18.1167C0.205442 18.3102 0.228094 18.6013 0.421649 18.7669C0.503959 18.8373 0.608518 18.8765 0.716823 18.8776H5.8168V22.1054C5.8168 22.5994 6.21734 23 6.71138 23H8.11779C8.61182 23.0025 9.01444 22.6041 9.01697 22.11C9.01697 22.1085 9.01697 22.107 9.01697 22.1054V18.8776H12.8443V22.1054C12.8443 22.5994 13.2448 23 13.7388 23H15.1453C15.6393 23 16.0398 22.5994 16.0398 22.1054V17.402H22.2788C22.5334 17.4017 22.7396 17.195 22.7393 16.9403C22.7391 16.8285 22.6984 16.7205 22.6246 16.6365ZM8.09473 22.0777L6.73904 22.1054L6.71138 18.8776H8.09473V22.0777ZM12.8443 17.9553H1.73129L5.50324 13.6531C5.67397 13.4642 5.65916 13.1726 5.47021 13.0018C5.38214 12.9223 5.2668 12.8797 5.14818 12.883H3.34981L6.38398 8.91279C6.53932 8.71099 6.50168 8.42146 6.29988 8.26612C6.21953 8.20428 6.12109 8.17061 6.0197 8.17038H4.63634L7.40306 5.02094L10.1698 8.16116L8.22385 10.7342C8.06851 10.936 8.10615 11.2255 8.30795 11.3809C8.3883 11.4427 8.48674 11.4764 8.58813 11.4766H10.7738L6.25948 16.6411C6.0914 16.8325 6.11025 17.1238 6.30156 17.2919C6.38554 17.3657 6.4935 17.4064 6.60532 17.4066H12.8443V17.9553ZM15.1176 22.0685L13.7665 22.1054L13.7388 17.402H15.1222L15.1176 22.0685ZM15.1453 16.4798H7.61978L12.1341 11.3152C12.3022 11.1239 12.2834 10.8325 12.0921 10.6645C12.0081 10.5907 11.9001 10.5499 11.7883 10.5498H9.52421L13.167 5.78178C13.3199 5.57808 13.2786 5.28902 13.0749 5.13622C12.9963 5.07731 12.901 5.04497 12.8028 5.04399H11.0367L14.4582 1.16137L17.8612 5.04399H16.0813C15.8267 5.04463 15.6207 5.25155 15.6213 5.50621C15.6215 5.6076 15.6552 5.70605 15.717 5.7864L19.3368 10.5498H17.0912C16.8365 10.5501 16.6303 10.7568 16.6306 11.0115C16.6307 11.1233 16.6716 11.2312 16.7453 11.3152L21.2597 16.4798H15.1453Z" fill="#2D383F"/>
    </g>
    <defs>
      <clipPath id="clip0_248_2173">
      <rect width="23" height="23" fill="white"/>
      </clipPath>
    </defs>
  </symbol>
  <symbol id="process-map" viewBox="0 0 25 25" fill="none">
    <g clip-path="url(#clip0_248_2190)">
      <path d="M24.1704 22.2803V6.70123C24.1823 6.44571 23.9848 6.22897 23.7293 6.2171C23.6748 6.21456 23.6204 6.22168 23.5684 6.23812V6.26127L21.4844 6.91426C21.7026 6.33016 21.8321 5.71665 21.8688 5.09423C21.8688 2.28077 19.588 0 16.7745 0C13.9611 0 11.6803 2.28077 11.6803 5.09423C11.7128 5.68754 11.833 6.27279 12.0369 6.8309L8.59135 5.59902C8.55135 5.5941 8.51094 5.5941 8.47094 5.59902H8.43389C8.37837 5.60001 8.32344 5.61101 8.2718 5.63144L1.12598 8.41011C0.961171 8.47281 0.846262 8.62361 0.82959 8.79913V16.246V24.3967C0.830342 24.6525 1.03828 24.8592 1.29409 24.8585C1.35065 24.8583 1.40669 24.8478 1.45942 24.8274L8.44315 22.1229L16.4087 24.9756C16.5048 25.0081 16.6089 25.0081 16.7051 24.9756L23.8463 22.7434C24.0469 22.6806 24.18 22.4904 24.1704 22.2803ZM16.7745 0.926224C19.0765 0.926224 20.9425 2.79228 20.9425 5.09423C20.9425 6.905 18.2241 11.9066 16.7745 14.3565C15.325 11.8881 12.6065 6.88184 12.6065 5.09423C12.6065 2.79228 14.4726 0.926224 16.7745 0.926224ZM23.2581 21.9608L17.0246 23.9105V20.3769C17.0246 20.1212 16.8173 19.9138 16.5615 19.9138C16.3057 19.9138 16.0984 20.1212 16.0984 20.3769V23.8781L8.90163 21.3032V18.3392C8.90163 18.0835 8.69427 17.8761 8.43852 17.8761C8.18277 17.8761 7.97541 18.0835 7.97541 18.3392V21.3032L1.75581 23.7252V16.5655L4.04359 15.6393C4.2884 15.5652 4.42675 15.3067 4.35266 15.0618C4.27856 14.817 4.02003 14.6787 3.77521 14.7528C3.74963 14.7605 3.72473 14.7705 3.70083 14.7825L1.75576 15.5652V9.11868L7.97535 6.71049V8.09983C7.97535 8.35558 8.18271 8.56294 8.43846 8.56294C8.69421 8.56294 8.90157 8.35558 8.90157 8.09983V6.69197L12.4536 7.96553C13.5928 10.5687 14.9032 13.0936 16.3762 15.5235C16.5088 15.7422 16.7936 15.8119 17.0123 15.6793C17.076 15.6407 17.1295 15.5872 17.1681 15.5235C18.6339 13.1079 19.9396 10.5985 21.0768 8.01184L23.2442 7.33106L23.258 14.9215L20.9101 15.4911C20.6543 15.5218 20.4718 15.754 20.5025 16.0098C20.5332 16.2655 20.7655 16.448 21.0212 16.4173C21.0581 16.4218 21.0954 16.4218 21.1324 16.4173L23.258 15.8986V21.9608H23.2581Z" fill="#2D383F"/>
      <path d="M16.7556 2.40332C15.2696 2.40332 14.0649 3.60799 14.0649 5.094C14.0649 6.58001 15.2696 7.78468 16.7556 7.78468C18.2406 7.78213 19.4438 6.57897 19.4463 5.094C19.4463 3.60799 18.2416 2.40332 16.7556 2.40332ZM16.7556 6.85846C15.7895 6.84584 15.0121 6.06028 15.0097 5.094H14.9912C14.9912 4.1195 15.7811 3.32954 16.7556 3.32954C17.7301 3.32954 18.5201 4.1195 18.5201 5.094C18.5201 6.0685 17.7301 6.85846 16.7556 6.85846Z" fill="#2D383F"/>
      <path d="M10.6981 13.9672V13.9811L8.45661 13.0132C8.34251 12.9656 8.21411 12.9656 8.10001 13.0132L6.20589 13.7774C5.96802 13.8733 5.85294 14.1439 5.94886 14.3817C6.04478 14.6196 6.31536 14.7347 6.55322 14.6387L8.26673 13.9487L10.3276 14.8194C10.3861 14.8443 10.4492 14.8569 10.5128 14.8564C10.7686 14.8585 10.9776 14.6529 10.9797 14.3971C10.9812 14.2101 10.8701 14.0405 10.6981 13.9672Z" fill="#2D383F"/>
      <path d="M18.27 16.6161C18.201 16.393 17.9766 16.2562 17.7467 16.2969L17.7513 16.2599L16.6028 16.5377L14.6578 15.6949C14.4224 15.5926 14.1487 15.7004 14.0465 15.9357C13.9442 16.171 14.052 16.4447 14.2873 16.547L16.3713 17.4732C16.4298 17.4982 16.4929 17.5108 16.5565 17.5103H16.6677L17.9644 17.1954C18.2087 17.1198 18.3455 16.8604 18.27 16.6161Z" fill="#2D383F"/>
    </g>
    <defs>
      <clipPath id="clip0_248_2190">
      <rect width="25" height="25" fill="white"/>
      </clipPath>
    </defs>
  </symbol>
  <symbol id="process-peaks" viewBox="0 0 25 25" fill="none">
    <g clip-path="url(#clip0_248_2161)">
      <path d="M23.4153 24.1879L19.3747 14.7901L15.5583 5.9074C15.4551 5.665 15.1749 5.55224 14.9325 5.65546C14.8192 5.70376 14.7289 5.79404 14.6806 5.9074L11.2744 13.8121L9.93871 16.9177L7.00963 10.1579C6.90634 9.91551 6.62614 9.80274 6.3838 9.90596C6.27044 9.95427 6.18016 10.0445 6.13186 10.1579L3.37928 16.517L0.0399368 24.1831C-0.0654315 24.4246 0.0448861 24.7058 0.286333 24.8112C0.347037 24.8377 0.412572 24.8513 0.478822 24.851H22.9765C23.2399 24.8508 23.4533 24.6371 23.4531 24.3736C23.4531 24.3098 23.4402 24.2467 23.4153 24.1879ZM15.1147 7.29561L18.2107 14.4943H17.1231L15.1576 12.3237C14.9804 12.1287 14.6787 12.1143 14.4837 12.2916C14.4531 12.3194 14.4263 12.351 14.4039 12.3857L13.6692 13.5211H12.4384L15.1147 7.29561ZM6.57074 11.5318L9.018 17.1896H7.68226C7.52007 17.1899 7.36914 17.2726 7.28154 17.4091L6.80449 18.1676L5.57371 16.4311C5.48474 16.3028 5.33864 16.2262 5.18253 16.226H4.54805L6.57074 11.5318ZM1.22779 23.8969L4.13302 17.1801H4.93446L6.42285 19.3029C6.51182 19.4312 6.65792 19.5078 6.81403 19.5081C6.97283 19.5046 7.11947 19.4223 7.20522 19.2886L7.93987 18.1532H9.42826L11.9137 23.8778L1.22779 23.8969ZM12.9584 23.8969L10.4587 18.1246L12.0282 14.4752H13.9364C14.0986 14.4749 14.2495 14.3923 14.3371 14.2558L14.8666 13.44L16.5554 15.3053C16.6455 15.4052 16.7738 15.4624 16.9084 15.4627H18.6162L22.2466 23.9112L12.9584 23.8969Z" fill="#2D383F"/>
      <path d="M7.61096 2.08189C7.16093 0.922602 5.85626 0.347698 4.69703 0.797794C3.83387 1.13286 3.26385 1.96221 3.26028 2.8881C3.25557 2.97075 3.25557 3.05352 3.26028 3.13617C2.13241 3.65997 1.64278 4.99893 2.16658 6.12679C2.52932 6.90778 3.30572 7.41351 4.16667 7.42961L4.19052 7.44869H7.52987C9.01188 7.47112 10.2314 6.28786 10.2538 4.80584C10.2762 3.32383 9.09298 2.10431 7.61096 2.08189ZM7.55849 6.50891H4.21914C3.50512 6.58267 2.86653 6.0637 2.79277 5.34968C2.719 4.63565 3.23797 3.99706 3.952 3.9233C4.21026 3.87124 4.37747 3.61972 4.32541 3.3614C4.32141 3.34166 4.31622 3.32216 4.30978 3.30314C4.26321 3.16968 4.23906 3.02943 4.23823 2.8881C4.23417 2.17146 4.81176 1.58725 5.52841 1.58314C6.16234 1.5795 6.70606 2.03448 6.81429 2.65912C6.85812 2.90993 7.09122 3.08208 7.34382 3.0503C7.41531 3.04559 7.48699 3.04559 7.55849 3.0503C8.51354 3.0503 9.28779 3.82455 9.28779 4.7796C9.28779 5.73466 8.51354 6.50891 7.55849 6.50891Z" fill="#2D383F"/>
      <path d="M23.6966 2.63997C23.7013 2.55733 23.7013 2.47456 23.6966 2.39191C23.6917 1.14836 22.6797 0.144172 21.4362 0.148943C20.517 0.152521 19.6936 0.714604 19.3539 1.56727C17.8794 1.59816 16.7046 2.81392 16.7269 4.29057C16.7493 5.77258 17.9688 6.95584 19.4508 6.93342H22.7902C24.0335 6.91016 25.0226 5.88343 24.9994 4.64006C24.9833 3.77911 24.4776 3.00271 23.6966 2.63997ZM24.0559 4.94758C23.9296 5.54008 23.4102 5.96632 22.8045 5.97455H19.4651C18.5101 5.97455 17.7358 5.2003 17.7358 4.24525C17.7358 3.29019 18.5101 2.51594 19.4651 2.51594C19.5366 2.51123 19.6083 2.51123 19.6798 2.51594C19.9212 2.54099 20.1429 2.38088 20.195 2.14384C20.3146 1.43727 20.9843 0.961417 21.6909 1.08098C22.3975 1.20054 22.8734 1.87026 22.7538 2.57688C22.7416 2.64862 22.7235 2.71922 22.6995 2.78792C22.6153 3.03754 22.7494 3.3082 22.9991 3.39246C23.0181 3.3989 23.0376 3.40415 23.0573 3.40808C23.7582 3.5574 24.2053 4.24668 24.0559 4.94758Z" fill="#2D383F"/>
    </g>
    <defs>
      <clipPath id="clip0_248_2161">
      <rect width="25" height="25" fill="white"/>
      </clipPath>
    </defs>
  </symbol>
</svg>
