<svg xmlns="http://www.w3.org/2000/svg" xmlns:xlink="http://www.w3.org/1999/xlink"><defs>
    <clipPath id="clip0_131_3790">
      <rect width="205" height="62" fill="white"/>
    </clipPath>
  
    <clipPath id="clip0_131_2514">
      <rect width="22" height="22" fill="white"/>
    </clipPath>
  
      <clipPath id="clip0_131_2514">
        <rect width="22" height="22" fill="white"/>
      </clipPath>
    </defs><symbol id="arrow-slider" viewBox="0 0 14 9"><g fill="none">
  <path d="M13.3536 4.85355C13.5488 4.65829 13.5488 4.34171 13.3536 4.14645L10.1716 0.964466C9.97631 0.769204 9.65973 0.769204 9.46447 0.964466C9.2692 1.15973 9.2692 1.47631 9.46447 1.67157L12.2929 4.5L9.46447 7.32843C9.2692 7.52369 9.2692 7.84027 9.46447 8.03553C9.65973 8.2308 9.97631 8.2308 10.1716 8.03553L13.3536 4.85355ZM0 5H13V4H0V5Z" fill="currentColor"/>
</g></symbol><symbol id="envelope" viewBox="0 0 22 22"><g fill="none">
  <path d="M21 5.55556V16.4444C21 17.3036 20.3604 18 19.5714 18H2.42857C1.63959 18 1 17.3036 1 16.4444V5.55556M21 5.55556C21 4.69645 20.3604 4 19.5714 4H2.42857C1.63959 4 1 4.69645 1 5.55556M21 5.55556L12.8594 13.1534C11.7895 14.152 10.2106 14.152 9.14062 13.1534L1 5.55556" stroke="currentColor" stroke-linecap="round" stroke-linejoin="round"/>
</g></symbol><symbol id="icon-close" viewBox="0 0 20 20"><g fill="none"><path d="M.293 18.291a1 1 0 101.414 1.414L10 11.413l8.292 8.292a1 1 0 101.414-1.414l-8.292-8.292 8.292-8.292A1 1 0 1018.291.293L9.999 8.585 1.707.293A1 1 0 10.293 1.707L8.585 10 .293 18.291z"/></g></symbol><symbol id="logo" viewBox="0 0 205 62"><g fill="none">
  <g clip-path="url(#clip0_131_3790)">
    <path d="M22.7109 40.218L28.1507 34.4824L34.3385 40.218H44.9461L28.0827 23.6255L11.3553 40.218H22.7109Z" fill="#2D383F"/>
    <path d="M38.2827 13.5881L30.259 21.7819L35.5628 27.2445L38.2827 24.5132L53.1742 39.3987C49.7743 48.4802 41.0706 54.967 30.8029 54.967C17.6114 54.967 6.93576 44.2467 6.93576 31C7.00376 17.7533 17.6794 7.03304 30.8709 7.03304C42.5665 7.03304 52.3582 15.5683 54.3301 26.6982L61.5379 34.3458C61.6739 33.2533 61.7419 32.0925 61.7419 31C61.7419 22.7379 58.546 14.9537 52.6982 9.0815C46.8504 3.20925 39.0987 0 30.8709 0C22.5752 0 14.8915 3.20925 9.04369 9.0815C3.19589 14.9537 0 22.6696 0 31C0 39.3304 3.19589 47.0463 9.04369 52.9185C14.8915 58.7907 22.6432 62 30.8709 62C39.0987 62 46.8504 58.7907 52.6982 52.9185C56.3021 49.2996 58.886 44.9978 60.3139 40.2863C60.5859 39.467 60.7899 38.5793 60.9939 37.7599L54.7381 31.1366L38.2827 13.5881Z" fill="#2D383F"/>
    <path d="M87.2138 19.9204H91.7535L89.2773 32.4222H96.9351L96.2015 36.0369H84.0039L87.2138 19.9204Z" fill="#2D383F"/>
    <path d="M101.208 19.9204H105.747L102.538 36.0369H97.9979L101.208 19.9204Z" fill="#2D383F"/>
    <path d="M112.806 23.443L112.095 26.9887H119.18L118.469 30.5113H111.408L110.307 36.0369H105.767L108.977 19.9204H121.542L120.831 23.443H112.806Z" fill="#2D383F"/>
    <path d="M127.448 23.443L126.921 26.1598H134.051L133.386 29.5673H126.233L125.659 32.5143H134.074L133.34 36.0369H120.478L123.688 19.9204H136.252L135.541 23.443H127.448Z" fill="#2D383F"/>
    <path d="M141.775 23.5351H136.845L137.579 19.9204H151.955L151.221 23.5351H146.315L143.815 36.0369H139.276L141.775 23.5351Z" fill="#2D383F"/>
    <path d="M158.879 36.3593C157.259 36.3593 155.845 36.06 154.637 35.4613C153.445 34.8627 152.52 34.0262 151.863 32.9518C151.221 31.8773 150.9 30.6494 150.9 29.268C150.9 27.4261 151.32 25.7684 152.161 24.2949C153.017 22.8214 154.202 21.6702 155.715 20.8414C157.243 20.0125 158.978 19.5981 160.919 19.5981C162.54 19.5981 163.946 19.8974 165.138 20.496C166.346 21.0946 167.27 21.9311 167.912 23.0056C168.57 24.08 168.898 25.3079 168.898 26.6893C168.898 28.5312 168.47 30.1889 167.614 31.6624C166.774 33.136 165.589 34.2871 164.061 35.116C162.547 35.9448 160.82 36.3593 158.879 36.3593ZM159.269 32.5834C160.278 32.5834 161.164 32.3301 161.928 31.8236C162.693 31.3171 163.281 30.6417 163.694 29.7975C164.106 28.938 164.313 27.994 164.313 26.9656C164.313 25.8758 163.977 25.0086 163.304 24.364C162.647 23.704 161.722 23.374 160.53 23.374C159.521 23.374 158.634 23.6272 157.87 24.1337C157.106 24.6402 156.517 25.3233 156.105 26.1828C155.692 27.027 155.486 27.9633 155.486 28.9917C155.486 30.0815 155.814 30.9564 156.471 31.6164C157.144 32.2611 158.076 32.5834 159.269 32.5834Z" fill="#2D383F"/>
    <path d="M177.421 36.3593C176.03 36.3593 174.83 36.129 173.821 35.6686C172.812 35.1927 172.04 34.5174 171.505 33.6425C170.97 32.7676 170.703 31.7392 170.703 30.5573C170.703 30.0661 170.764 29.4982 170.886 28.8536L172.675 19.9204H177.214L175.449 28.7845C175.357 29.245 175.311 29.6671 175.311 30.0508C175.311 31.7392 176.198 32.5834 177.971 32.5834C178.934 32.5834 179.69 32.2918 180.241 31.7085C180.806 31.1099 181.227 30.1352 181.502 28.7845L183.267 19.9204H187.738L185.927 29.0608C184.949 33.9264 182.113 36.3593 177.421 36.3593Z" fill="#2D383F"/>
    <path d="M204.157 25.0547C204.157 26.5282 203.768 27.8022 202.988 28.8766C202.209 29.9357 201.116 30.7108 199.709 31.202L202.438 36.0369H197.692L195.307 31.7545H193.015L192.166 36.0369H187.627L190.836 19.9204H197.692C199.74 19.9204 201.33 20.3732 202.461 21.2788C203.592 22.1844 204.157 23.443 204.157 25.0547ZM199.572 25.4921C199.572 24.8321 199.35 24.3409 198.907 24.0186C198.464 23.6809 197.845 23.5121 197.05 23.5121H194.665L193.702 28.2319H196.408C197.417 28.2319 198.196 27.994 198.746 27.5182C199.297 27.0424 199.572 26.367 199.572 25.4921Z" fill="#2D383F"/>
    <path d="M87.0264 51.2331C86.4734 51.2331 85.971 51.1103 85.5191 50.8647C85.0725 50.6138 84.7216 50.2721 84.4664 49.8396C84.2166 49.4072 84.0916 48.9214 84.0916 48.3821C84.0916 47.8429 84.2166 47.3571 84.4664 46.9247C84.7216 46.4922 85.0725 46.1532 85.5191 45.9076C85.971 45.6567 86.4734 45.5312 87.0264 45.5312C87.5793 45.5312 88.0764 45.654 88.5177 45.8996C88.9643 46.1452 89.3152 46.4869 89.5704 46.9247C89.8255 47.3571 89.9531 47.8429 89.9531 48.3821C89.9531 48.9214 89.8255 49.4099 89.5704 49.8477C89.3152 50.2801 88.9643 50.6191 88.5177 50.8647C88.0764 51.1103 87.5793 51.2331 87.0264 51.2331ZM87.0264 50.7045C87.4676 50.7045 87.8664 50.6058 88.2226 50.4082C88.5788 50.2053 88.8579 49.9277 89.06 49.5754C89.262 49.2177 89.363 48.8199 89.363 48.3821C89.363 47.9444 89.262 47.5493 89.06 47.1969C88.8579 46.8392 88.5788 46.5616 88.2226 46.3641C87.8664 46.1612 87.4676 46.0598 87.0264 46.0598C86.5851 46.0598 86.1837 46.1612 85.8222 46.3641C85.466 46.5616 85.1842 46.8392 84.9768 47.1969C84.7748 47.5493 84.6738 47.9444 84.6738 48.3821C84.6738 48.8199 84.7748 49.2177 84.9768 49.5754C85.1842 49.9277 85.466 50.2053 85.8222 50.4082C86.1837 50.6058 86.5851 50.7045 87.0264 50.7045Z" fill="#2D383F"/>
    <path d="M93.387 46.9407C93.7804 46.9407 94.1367 47.0314 94.4556 47.213C94.7746 47.3891 95.0245 47.6401 95.2053 47.9657C95.386 48.2914 95.4764 48.6624 95.4764 49.0789C95.4764 49.5006 95.386 49.8743 95.2053 50.2C95.0245 50.5257 94.7746 50.7793 94.4556 50.9608C94.142 51.137 93.7858 51.2251 93.387 51.2251C93.0467 51.2251 92.7384 51.1557 92.4619 51.0168C92.1908 50.8727 91.9675 50.6645 91.792 50.3922V52.7386H91.2258V46.9727H91.7681V47.8056C91.9382 47.5279 92.1615 47.3144 92.438 47.1649C92.7198 47.0154 93.0361 46.9407 93.387 46.9407ZM93.3471 50.7205C93.6395 50.7205 93.9054 50.6538 94.1446 50.5203C94.3839 50.3815 94.5699 50.1867 94.7029 49.9357C94.8411 49.6848 94.9102 49.3992 94.9102 49.0789C94.9102 48.7585 94.8411 48.4756 94.7029 48.23C94.5699 47.9791 94.3839 47.7842 94.1446 47.6454C93.9054 47.5066 93.6395 47.4372 93.3471 47.4372C93.0494 47.4372 92.7809 47.5066 92.5417 47.6454C92.3077 47.7842 92.1217 47.9791 91.9834 48.23C91.8505 48.4756 91.7841 48.7585 91.7841 49.0789C91.7841 49.3992 91.8505 49.6848 91.9834 49.9357C92.1217 50.1867 92.3077 50.3815 92.5417 50.5203C92.7809 50.6538 93.0494 50.7205 93.3471 50.7205Z" fill="#2D383F"/>
    <path d="M99.6596 47.4772H97.2592V51.185H96.693V46.9727H99.6596V47.4772Z" fill="#2D383F"/>
    <path d="M101.921 46.9407C102.469 46.9407 102.889 47.0795 103.181 47.3571C103.474 47.6294 103.62 48.0351 103.62 48.5743V51.185H103.078V50.5283C102.95 50.7472 102.761 50.9181 102.512 51.0409C102.267 51.1637 101.975 51.2251 101.634 51.2251C101.166 51.2251 100.794 51.1129 100.518 50.8887C100.241 50.6645 100.103 50.3682 100.103 49.9998C100.103 49.6421 100.231 49.3538 100.486 49.1349C100.746 48.916 101.158 48.8066 101.722 48.8066H103.054V48.5503C103.054 48.1873 102.953 47.9123 102.751 47.7255C102.549 47.5333 102.254 47.4372 101.866 47.4372C101.6 47.4372 101.345 47.4826 101.1 47.5733C100.855 47.6587 100.645 47.7789 100.47 47.9337L100.215 47.5093C100.427 47.3277 100.683 47.1889 100.98 47.0928C101.278 46.9914 101.592 46.9407 101.921 46.9407ZM101.722 50.7766C102.041 50.7766 102.315 50.7045 102.543 50.5604C102.772 50.4109 102.942 50.1973 103.054 49.9197V49.231H101.738C101.02 49.231 100.661 49.4819 100.661 49.9838C100.661 50.2294 100.754 50.4242 100.94 50.5684C101.127 50.7072 101.387 50.7766 101.722 50.7766Z" fill="#2D383F"/>
    <path d="M105.127 46.9727H105.694V48.8386H108.333V46.9727H108.899V51.185H108.333V49.3271H105.694V51.185H105.127V46.9727Z" fill="#2D383F"/>
    <path d="M110.509 46.9727H111.075V50.3201L113.874 46.9727H114.377V51.185H113.81V47.8376L111.019 51.185H110.509V46.9727Z" fill="#2D383F"/>
    <path d="M117.955 48.9908C118.253 49.0602 118.482 49.1803 118.641 49.3511C118.806 49.522 118.888 49.7302 118.888 49.9758C118.888 50.2214 118.803 50.4403 118.633 50.6325C118.468 50.8246 118.242 50.9741 117.955 51.0809C117.668 51.1824 117.352 51.2331 117.006 51.2331C116.703 51.2331 116.405 51.1904 116.113 51.1049C115.821 51.0142 115.565 50.8834 115.347 50.7125L115.539 50.2881C115.73 50.4322 115.954 50.5444 116.209 50.6244C116.464 50.7045 116.722 50.7446 116.982 50.7446C117.37 50.7446 117.687 50.6725 117.931 50.5283C118.181 50.3789 118.306 50.1787 118.306 49.9277C118.306 49.7035 118.205 49.53 118.003 49.4072C117.801 49.2791 117.525 49.215 117.174 49.215H116.456V48.7986H117.142C117.455 48.7986 117.708 48.7398 117.899 48.6224C118.091 48.4996 118.186 48.3368 118.186 48.1339C118.186 47.9097 118.077 47.7335 117.86 47.6054C117.647 47.4772 117.368 47.4132 117.022 47.4132C116.57 47.4132 116.124 47.5279 115.682 47.7575L115.523 47.3171C116.023 47.0555 116.541 46.9247 117.078 46.9247C117.397 46.9247 117.684 46.9727 117.939 47.0688C118.2 47.1596 118.402 47.2904 118.545 47.4612C118.694 47.632 118.769 47.8296 118.769 48.0538C118.769 48.2674 118.694 48.4569 118.545 48.6224C118.402 48.7879 118.205 48.9107 117.955 48.9908Z" fill="#2D383F"/>
    <path d="M121.617 46.9407C122.165 46.9407 122.585 47.0795 122.877 47.3571C123.17 47.6294 123.316 48.0351 123.316 48.5743V51.185H122.773V50.5283C122.646 50.7472 122.457 50.9181 122.207 51.0409C121.963 51.1637 121.67 51.2251 121.33 51.2251C120.862 51.2251 120.49 51.1129 120.214 50.8887C119.937 50.6645 119.799 50.3682 119.799 49.9998C119.799 49.6421 119.926 49.3538 120.182 49.1349C120.442 48.916 120.854 48.8066 121.418 48.8066H122.75V48.5503C122.75 48.1873 122.649 47.9123 122.446 47.7255C122.244 47.5333 121.949 47.4372 121.561 47.4372C121.295 47.4372 121.04 47.4826 120.796 47.5733C120.551 47.6587 120.341 47.7789 120.166 47.9337L119.91 47.5093C120.123 47.3277 120.378 47.1889 120.676 47.0928C120.974 46.9914 121.287 46.9407 121.617 46.9407ZM121.418 50.7766C121.737 50.7766 122.011 50.7045 122.239 50.5604C122.468 50.4109 122.638 50.1973 122.75 49.9197V49.231H121.434C120.716 49.231 120.357 49.4819 120.357 49.9838C120.357 50.2294 120.45 50.4242 120.636 50.5684C120.822 50.7072 121.083 50.7766 121.418 50.7766Z" fill="#2D383F"/>
    <path d="M129.193 50.6885V52.2421H128.659V51.185H124.823V46.9727H125.389V50.6885H127.949V46.9727H128.515V50.6885H129.193Z" fill="#2D383F"/>
    <path d="M130.275 46.9727H130.841V50.3201L133.64 46.9727H134.142V51.185H133.576V47.8376L130.785 51.185H130.275V46.9727Z" fill="#2D383F"/>
    <path d="M138.987 46.9727V51.185H138.469V49.7916H136.993L136.02 51.185H135.406L136.451 49.7115C136.127 49.6208 135.877 49.4659 135.701 49.247C135.526 49.0281 135.438 48.7505 135.438 48.4142C135.438 47.9444 135.598 47.5867 135.917 47.3411C136.236 47.0955 136.672 46.9727 137.225 46.9727H138.987ZM136.012 48.4302C136.012 49.0548 136.408 49.3672 137.201 49.3672H138.469V47.4772H137.24C136.422 47.4772 136.012 47.7949 136.012 48.4302Z" fill="#2D383F"/>
    <path d="M146.453 46.9727V51.185H145.887V47.4772H143.255V51.185H142.689V46.9727H146.453Z" fill="#2D383F"/>
    <path d="M149.793 51.2251C149.389 51.2251 149.025 51.1343 148.7 50.9528C148.376 50.7659 148.121 50.5097 147.935 50.184C147.749 49.8583 147.656 49.4899 147.656 49.0789C147.656 48.6678 147.749 48.2994 147.935 47.9737C148.121 47.6481 148.376 47.3945 148.7 47.213C149.025 47.0314 149.389 46.9407 149.793 46.9407C150.197 46.9407 150.561 47.0314 150.885 47.213C151.21 47.3945 151.462 47.6481 151.643 47.9737C151.829 48.2994 151.922 48.6678 151.922 49.0789C151.922 49.4899 151.829 49.8583 151.643 50.184C151.462 50.5097 151.21 50.7659 150.885 50.9528C150.561 51.1343 150.197 51.2251 149.793 51.2251ZM149.793 50.7205C150.091 50.7205 150.356 50.6538 150.59 50.5203C150.83 50.3815 151.016 50.1867 151.149 49.9357C151.282 49.6848 151.348 49.3992 151.348 49.0789C151.348 48.7585 151.282 48.4729 151.149 48.222C151.016 47.9711 150.83 47.7789 150.59 47.6454C150.356 47.5066 150.091 47.4372 149.793 47.4372C149.495 47.4372 149.227 47.5066 148.987 47.6454C148.753 47.7789 148.567 47.9711 148.429 48.222C148.296 48.4729 148.23 48.7585 148.23 49.0789C148.23 49.3992 148.296 49.6848 148.429 49.9357C148.567 50.1867 148.753 50.3815 148.987 50.5203C149.227 50.6538 149.495 50.7205 149.793 50.7205Z" fill="#2D383F"/>
    <path d="M155.608 51.185L154.276 49.4232L152.936 51.185H152.298L153.957 49.0228L152.378 46.9727H153.016L154.276 48.6224L155.536 46.9727H156.158L154.579 49.0228L156.254 51.185H155.608Z" fill="#2D383F"/>
    <path d="M158.765 51.2251C158.361 51.2251 157.996 51.1343 157.672 50.9528C157.348 50.7659 157.093 50.5097 156.906 50.184C156.72 49.8583 156.627 49.4899 156.627 49.0789C156.627 48.6678 156.72 48.2994 156.906 47.9737C157.093 47.6481 157.348 47.3945 157.672 47.213C157.996 47.0314 158.361 46.9407 158.765 46.9407C159.169 46.9407 159.533 47.0314 159.857 47.213C160.181 47.3945 160.434 47.6481 160.615 47.9737C160.801 48.2994 160.894 48.6678 160.894 49.0789C160.894 49.4899 160.801 49.8583 160.615 50.184C160.434 50.5097 160.181 50.7659 159.857 50.9528C159.533 51.1343 159.169 51.2251 158.765 51.2251ZM158.765 50.7205C159.062 50.7205 159.328 50.6538 159.562 50.5203C159.801 50.3815 159.987 50.1867 160.12 49.9357C160.253 49.6848 160.32 49.3992 160.32 49.0789C160.32 48.7585 160.253 48.4729 160.12 48.222C159.987 47.9711 159.801 47.7789 159.562 47.6454C159.328 47.5066 159.062 47.4372 158.765 47.4372C158.467 47.4372 158.198 47.5066 157.959 47.6454C157.725 47.7789 157.539 47.9711 157.401 48.222C157.268 48.4729 157.202 48.7585 157.202 49.0789C157.202 49.3992 157.268 49.6848 157.401 49.9357C157.539 50.1867 157.725 50.3815 157.959 50.5203C158.198 50.6538 158.467 50.7205 158.765 50.7205Z" fill="#2D383F"/>
    <path d="M166.172 50.6885V52.2021H165.637V51.185H161.881V52.2021H161.347V50.6885H161.586C161.868 50.6725 162.059 50.4643 162.16 50.0639C162.261 49.6635 162.331 49.1029 162.368 48.3821L162.424 46.9727H165.518V50.6885H166.172ZM162.886 48.4142C162.86 49.0121 162.809 49.506 162.735 49.8957C162.66 50.2801 162.527 50.5444 162.336 50.6885H164.952V47.4772H162.934L162.886 48.4142Z" fill="#2D383F"/>
    <path d="M169.006 51.2251C168.602 51.2251 168.238 51.1343 167.913 50.9528C167.589 50.7659 167.334 50.5097 167.148 50.184C166.962 49.8583 166.868 49.4899 166.868 49.0789C166.868 48.6678 166.962 48.2994 167.148 47.9737C167.334 47.6481 167.589 47.3945 167.913 47.213C168.238 47.0314 168.602 46.9407 169.006 46.9407C169.41 46.9407 169.774 47.0314 170.098 47.213C170.423 47.3945 170.675 47.6481 170.856 47.9737C171.042 48.2994 171.135 48.6678 171.135 49.0789C171.135 49.4899 171.042 49.8583 170.856 50.184C170.675 50.5097 170.423 50.7659 170.098 50.9528C169.774 51.1343 169.41 51.2251 169.006 51.2251ZM169.006 50.7205C169.303 50.7205 169.569 50.6538 169.803 50.5203C170.042 50.3815 170.229 50.1867 170.361 49.9357C170.494 49.6848 170.561 49.3992 170.561 49.0789C170.561 48.7585 170.494 48.4729 170.361 48.222C170.229 47.9711 170.042 47.7789 169.803 47.6454C169.569 47.5066 169.303 47.4372 169.006 47.4372C168.708 47.4372 168.44 47.5066 168.2 47.6454C167.966 47.7789 167.78 47.9711 167.642 48.222C167.509 48.4729 167.443 48.7585 167.443 49.0789C167.443 49.3992 167.509 49.6848 167.642 49.9357C167.78 50.1867 167.966 50.3815 168.2 50.5203C168.44 50.6538 168.708 50.7205 169.006 50.7205Z" fill="#2D383F"/>
    <path d="M175.017 49.0068C175.586 49.1403 175.87 49.4846 175.87 50.0398C175.87 50.4082 175.734 50.6912 175.463 50.8887C175.192 51.0863 174.788 51.185 174.251 51.185H172.345V46.9727H174.195C174.674 46.9727 175.049 47.0661 175.32 47.253C175.591 47.4398 175.727 47.7068 175.727 48.0538C175.727 48.2834 175.663 48.4809 175.535 48.6464C175.413 48.8066 175.24 48.9267 175.017 49.0068ZM172.895 48.8466H174.155C174.48 48.8466 174.727 48.7852 174.897 48.6624C175.073 48.5396 175.16 48.3608 175.16 48.1259C175.16 47.891 175.073 47.7148 174.897 47.5973C174.727 47.4799 174.48 47.4212 174.155 47.4212H172.895V48.8466ZM174.227 50.7366C174.589 50.7366 174.86 50.6778 175.041 50.5604C175.221 50.4429 175.312 50.2587 175.312 50.0078C175.312 49.7569 175.229 49.5727 175.065 49.4552C174.9 49.3325 174.639 49.2711 174.283 49.2711H172.895V50.7366H174.227Z" fill="#2D383F"/>
    <path d="M181.956 49.0068C182.525 49.1403 182.809 49.4846 182.809 50.0398C182.809 50.4082 182.674 50.6912 182.402 50.8887C182.131 51.0863 181.727 51.185 181.19 51.185H179.284V46.9727H181.134C181.613 46.9727 181.988 47.0661 182.259 47.253C182.53 47.4398 182.666 47.7068 182.666 48.0538C182.666 48.2834 182.602 48.4809 182.474 48.6464C182.352 48.8066 182.179 48.9267 181.956 49.0068ZM179.835 48.8466H181.095C181.419 48.8466 181.666 48.7852 181.836 48.6624C182.012 48.5396 182.099 48.3608 182.099 48.1259C182.099 47.891 182.012 47.7148 181.836 47.5973C181.666 47.4799 181.419 47.4212 181.095 47.4212H179.835V48.8466ZM181.166 50.7366C181.528 50.7366 181.799 50.6778 181.98 50.5604C182.161 50.4429 182.251 50.2587 182.251 50.0078C182.251 49.7569 182.168 49.5727 182.004 49.4552C181.839 49.3325 181.578 49.2711 181.222 49.2711H179.835V50.7366H181.166Z" fill="#2D383F"/>
    <path d="M189.19 47.4772H186.79V51.185H186.223V46.9727H189.19V47.4772Z" fill="#2D383F"/>
    <path d="M191.544 51.2251C191.14 51.2251 190.776 51.1343 190.452 50.9528C190.127 50.7659 189.872 50.5097 189.686 50.184C189.5 49.8583 189.407 49.4899 189.407 49.0789C189.407 48.6678 189.5 48.2994 189.686 47.9737C189.872 47.6481 190.127 47.3945 190.452 47.213C190.776 47.0314 191.14 46.9407 191.544 46.9407C191.948 46.9407 192.312 47.0314 192.637 47.213C192.961 47.3945 193.214 47.6481 193.394 47.9737C193.58 48.2994 193.673 48.6678 193.673 49.0789C193.673 49.4899 193.58 49.8583 193.394 50.184C193.214 50.5097 192.961 50.7659 192.637 50.9528C192.312 51.1343 191.948 51.2251 191.544 51.2251ZM191.544 50.7205C191.842 50.7205 192.108 50.6538 192.342 50.5203C192.581 50.3815 192.767 50.1867 192.9 49.9357C193.033 49.6848 193.099 49.3992 193.099 49.0789C193.099 48.7585 193.033 48.4729 192.9 48.222C192.767 47.9711 192.581 47.7789 192.342 47.6454C192.108 47.5066 191.842 47.4372 191.544 47.4372C191.246 47.4372 190.978 47.5066 190.739 47.6454C190.505 47.7789 190.319 47.9711 190.18 48.222C190.047 48.4729 189.981 48.7585 189.981 49.0789C189.981 49.3992 190.047 49.6848 190.18 49.9357C190.319 50.1867 190.505 50.3815 190.739 50.5203C190.978 50.6538 191.246 50.7205 191.544 50.7205Z" fill="#2D383F"/>
    <path d="M197.045 46.9407C197.438 46.9407 197.794 47.0314 198.113 47.213C198.432 47.3891 198.682 47.6401 198.863 47.9657C199.044 48.2914 199.134 48.6624 199.134 49.0789C199.134 49.5006 199.044 49.8743 198.863 50.2C198.682 50.5257 198.432 50.7793 198.113 50.9608C197.8 51.137 197.443 51.2251 197.045 51.2251C196.704 51.2251 196.396 51.1557 196.12 51.0168C195.848 50.8727 195.625 50.6645 195.45 50.3922V52.7386H194.884V46.9727H195.426V47.8056C195.596 47.5279 195.819 47.3144 196.096 47.1649C196.377 47.0154 196.694 46.9407 197.045 46.9407ZM197.005 50.7205C197.297 50.7205 197.563 50.6538 197.802 50.5203C198.042 50.3815 198.228 50.1867 198.361 49.9357C198.499 49.6848 198.568 49.3992 198.568 49.0789C198.568 48.7585 198.499 48.4756 198.361 48.23C198.228 47.9791 198.042 47.7842 197.802 47.6454C197.563 47.5066 197.297 47.4372 197.005 47.4372C196.707 47.4372 196.439 47.5066 196.199 47.6454C195.965 47.7842 195.779 47.9791 195.641 48.23C195.508 48.4756 195.442 48.7585 195.442 49.0789C195.442 49.3992 195.508 49.6848 195.641 49.9357C195.779 50.1867 195.965 50.3815 196.199 50.5203C196.439 50.6538 196.707 50.7205 197.005 50.7205Z" fill="#2D383F"/>
    <path d="M202.113 48.4622C202.639 48.4676 203.041 48.585 203.317 48.8146C203.594 49.0442 203.732 49.3752 203.732 49.8076C203.732 50.2561 203.583 50.6004 203.285 50.8407C202.988 51.0809 202.562 51.1984 202.009 51.193L200.351 51.185V46.9727H200.917V48.4462L202.113 48.4622ZM204.434 46.9727H205V51.185H204.434V46.9727ZM201.978 50.7606C202.366 50.7659 202.658 50.6885 202.855 50.5283C203.057 50.3628 203.158 50.1226 203.158 49.8076C203.158 49.498 203.059 49.2684 202.863 49.1189C202.666 48.9694 202.371 48.892 201.978 48.8867L200.917 48.8706V50.7446L201.978 50.7606Z" fill="#2D383F"/>
  </g>
  
</g></symbol><symbol id="phone" viewBox="0 0 22 22"><g fill="none">
  <g clip-path="url(#clip0_131_2514)">
    <path d="M19.3236 20.0443C19.0034 20.6753 18.3438 21.0672 17.6426 20.9904C17.3412 20.9575 17.0402 20.9171 16.7396 20.8693C12.8229 20.2465 9.20304 18.3949 6.39895 15.5797C3.59486 12.7646 1.75046 9.1305 1.1301 5.19831C1.08254 4.89683 1.04236 4.59477 1.00952 4.29242C0.933062 3.58844 1.32346 2.92622 1.95195 2.60473L4.70244 1.19777C5.76693 0.653244 7.05498 1.28842 7.42933 2.42743C7.65638 3.11826 7.92452 3.79805 8.23342 4.4631C8.38821 4.79636 8.5524 5.12412 8.72567 5.44606C9.13588 6.20824 8.85917 7.18583 8.0736 7.54431C6.93267 8.06496 6.66094 9.56938 7.54713 10.4591L11.4995 14.427C12.3857 15.3167 13.8842 15.0439 14.4028 13.8985C14.7796 13.0663 15.8009 12.765 16.6118 13.1807C16.8084 13.2814 17.0071 13.3788 17.2078 13.4728C17.9681 13.8287 18.7478 14.1308 19.5413 14.3784C20.6964 14.7389 21.3521 16.0475 20.8029 17.1296L19.3236 20.0443Z" stroke="#2D383F" stroke-linecap="round" stroke-linejoin="round"/>
  </g>
  
</g></symbol><symbol id="sprite">
  <symbol id="arrow-slider" viewBox="0 0 14 9" fill="none">
    <path d="M13.3536 4.85355C13.5488 4.65829 13.5488 4.34171 13.3536 4.14645L10.1716 0.964466C9.97631 0.769204 9.65973 0.769204 9.46447 0.964466C9.2692 1.15973 9.2692 1.47631 9.46447 1.67157L12.2929 4.5L9.46447 7.32843C9.2692 7.52369 9.2692 7.84027 9.46447 8.03553C9.65973 8.2308 9.97631 8.2308 10.1716 8.03553L13.3536 4.85355ZM0 5H13V4H0V5Z" fill="currentColor"/>
  </symbol>
  <symbol id="vk" viewBox="0 0 25 25" fill="none">
    <path d="M13.7227 15.0518C14.1654 14.9087 14.7322 15.9964 15.3355 16.4127C15.7884 16.728 16.1352 16.6599 16.1352 16.6599L17.7434 16.6368C17.7434 16.6368 18.5838 16.5849 18.1865 15.9172C18.1536 15.8616 17.9536 15.4222 16.9895 14.5179C15.9815 13.5718 16.1181 13.7251 17.3317 12.0896C18.0712 11.0927 18.3671 10.4838 18.2745 10.2244C18.1856 9.97486 17.6424 10.0397 17.6424 10.0397L15.8305 10.0522C15.6541 10.0527 15.5045 10.1073 15.4365 10.2907C15.4351 10.2925 15.1489 11.0621 14.7674 11.7164C13.9612 13.1005 13.6394 13.1741 13.506 13.0875C13.1999 12.887 13.2773 12.2832 13.2773 11.8539C13.2773 10.5125 13.4773 9.9531 12.8855 9.80863C12.6878 9.76047 12.5433 9.72898 12.0391 9.72435C11.3945 9.71463 10.8472 9.72435 10.5369 9.8767C10.3309 9.97996 10.173 10.2064 10.2688 10.2194C10.3892 10.2356 10.6592 10.2934 10.8036 10.4907C10.9893 10.7463 10.9838 11.3191 10.9838 11.3191C10.9838 11.3191 11.0898 12.8986 10.7337 13.0944C10.4892 13.2287 10.1549 12.9546 9.43578 11.6979C9.06858 11.0552 8.79121 10.3448 8.79121 10.3448C8.79121 10.3448 8.7375 10.2129 8.64026 10.1406C8.52449 10.055 8.36243 10.0277 8.36243 10.0277L6.64265 10.0388C6.64265 10.0388 6.38427 10.0462 6.28935 10.1601C6.20507 10.261 6.2824 10.4694 6.2824 10.4694C6.2824 10.4694 7.62942 13.6557 9.15471 15.2606C10.5531 16.734 12.1423 16.6363 12.1423 16.6363H12.8624C12.8624 16.6363 13.0795 16.6113 13.1907 16.4918C13.2944 16.3807 13.2898 16.1719 13.2898 16.1719C13.2898 16.1719 13.2754 15.1953 13.7227 15.0518Z" fill="currentColor"/>
  </symbol>
  <symbol id="ok" viewBox="0 0 25 25" fill="none">
    <path d="M12.6804 6.88882C13.5788 6.88882 14.3096 7.64312 14.3096 8.57064C14.3096 9.49536 13.5788 10.2497 12.6804 10.2497C11.7819 10.2497 11.0512 9.49536 11.0512 8.57064C11.0512 7.64312 11.7819 6.88882 12.6804 6.88882ZM12.6804 12.6299C14.8508 12.6299 16.6153 10.8084 16.6153 8.57064C16.6153 6.33008 14.8508 4.50858 12.6804 4.50858C10.5099 4.50858 8.74809 6.33008 8.74809 8.57064C8.74809 10.8084 10.5099 12.6299 12.6804 12.6299ZM14.2717 15.9432C15.0727 15.7533 15.844 15.4264 16.5558 14.9654C17.0943 14.6162 17.2567 13.8815 16.9184 13.3255C16.5774 12.7668 15.8684 12.5992 15.3271 12.9512C13.7169 13.996 11.6438 13.996 10.0309 12.9512C9.49232 12.5992 8.78057 12.7668 8.44228 13.3255C8.10399 13.8815 8.26637 14.6162 8.80492 14.9654C9.51668 15.4264 10.288 15.7533 11.089 15.9432L8.88882 18.2117C8.43957 18.6755 8.43957 19.4298 8.88882 19.8936C9.11615 20.1254 9.40843 20.2428 9.70342 20.2428C9.9984 20.2428 10.2934 20.1254 10.5207 19.8936L12.6804 17.6642L14.8427 19.8936C15.2919 20.3601 16.0199 20.3601 16.4719 19.8936C16.9211 19.4298 16.9211 18.6755 16.4719 18.2117L14.2717 15.9432Z" fill="currentColor"/>
  </symbol>
  <symbol id="reddit" viewBox="0 0 25 25" fill="none">
    <path d="M13.8509 5.55566C13.4055 5.55566 12.9876 5.7816 12.7195 6.10741C12.4514 6.43323 12.3037 6.8304 12.196 7.24897C12.0251 7.92201 11.9723 8.66877 11.9596 9.34181C10.7079 9.42505 9.57444 9.79606 8.63303 10.3692C8.25098 10.0481 7.79083 9.86978 7.34968 9.87454C6.84731 9.87929 6.37028 10.0957 6.01566 10.5404C5.3381 11.3895 5.4162 12.7784 6.20141 13.6036C6.15286 13.8581 6.11698 14.1197 6.11698 14.3837C6.11698 17.1805 8.97498 19.4446 12.5 19.4446C16.025 19.4446 18.883 17.1781 18.883 14.3837C18.883 14.1197 18.8471 13.8581 18.7986 13.6036C19.5838 12.7784 19.6619 11.3895 18.9843 10.5404C18.6297 10.0957 18.1527 9.87929 17.6503 9.87454C17.2091 9.86978 16.749 10.0481 16.3669 10.3692C15.4298 9.79843 14.3026 9.42743 13.0572 9.34181C13.0741 8.72109 13.1184 8.07659 13.243 7.59143C13.3211 7.28702 13.414 7.06584 13.5132 6.94455C13.6124 6.82326 13.6841 6.77332 13.8509 6.77332C14.2118 6.77332 14.2583 6.88985 14.4757 7.17286C14.5854 7.31556 14.7121 7.49393 14.9147 7.66754C15.1174 7.84115 15.4171 7.99098 15.7421 7.99098V6.77332C15.6514 6.77332 15.6345 6.77094 15.5733 6.71624C15.5121 6.66154 15.4276 6.5355 15.3031 6.37378C15.054 6.04796 14.5707 5.55566 13.8509 5.55566ZM17.3632 5.66982C16.5231 5.66982 15.8435 6.43561 15.8435 7.38215C15.8435 8.32869 16.5231 9.09448 17.3632 9.09448C18.2033 9.09448 18.883 8.32869 18.883 7.38215C18.883 6.43561 18.2033 5.66982 17.3632 5.66982ZM17.3632 6.27865C17.9036 6.27865 18.3426 6.77332 18.3426 7.38215C18.3426 7.99098 17.9036 8.48565 17.3632 8.48565C16.8229 8.48565 16.3838 7.99098 16.3838 7.38215C16.3838 6.77332 16.8229 6.27865 17.3632 6.27865ZM12.5 10.2931C15.491 10.2931 18.0218 12.1695 18.0218 14.3837C18.0218 16.6002 15.491 18.4742 12.5 18.4742C9.50901 18.4742 6.97818 16.6002 6.97818 14.3837C6.97818 12.1695 9.50901 10.2931 12.5 10.2931ZM7.36656 10.8449C7.51643 10.8472 7.67263 10.8853 7.82249 10.959C7.28002 11.4228 6.84942 11.9555 6.55602 12.5572C6.35339 12.0863 6.40827 11.4989 6.65734 11.1873C6.83887 10.959 7.09005 10.8425 7.36656 10.8449ZM17.6334 10.8449C17.9099 10.8425 18.1611 10.959 18.3426 11.1873C18.5917 11.4989 18.6466 12.0863 18.4439 12.5572C18.1506 11.9555 17.72 11.4228 17.1775 10.959C17.3273 10.8853 17.4835 10.8472 17.6334 10.8449ZM10.3385 12.3669C9.79819 12.3669 9.35914 12.8616 9.35914 13.4704C9.35914 14.0793 9.79819 14.5739 10.3385 14.5739C10.8789 14.5739 11.3179 14.0793 11.3179 13.4704C11.3179 12.8616 10.8789 12.3669 10.3385 12.3669ZM14.6614 12.3669C14.1211 12.3669 13.682 12.8616 13.682 13.4704C13.682 14.0793 14.1211 14.5739 14.6614 14.5739C15.2018 14.5739 15.6408 14.0793 15.6408 13.4704C15.6408 12.8616 15.2018 12.3669 14.6614 12.3669ZM9.81507 16.115C10.1591 16.9165 11.223 17.6942 12.5 17.6942C13.777 17.6942 14.8577 16.9165 15.2018 16.115C14.577 16.5693 13.5913 16.8761 12.5 16.8761C11.4087 16.8761 10.4399 16.5693 9.81507 16.115Z" fill="currentColor"/>
  </symbol>
  <symbol id="logo" viewBox="0 0 205 62" fill="none">
    <path fill="currentColor" d="M15.731 27.244 19.5 23.36l4.286 3.885h7.347l-11.68-11.24-11.587 11.24h7.865Z"/>
    <path fill="currentColor" d="m26.518 9.205-5.558 5.55 3.674 3.7 1.884-1.85L36.833 26.69c-2.355 6.152-8.384 10.547-15.496 10.547-9.138 0-16.533-7.262-16.533-16.236.047-8.974 7.442-16.236 16.58-16.236 8.101 0 14.884 5.782 16.25 13.322l4.992 5.18c.094-.74.142-1.526.142-2.266 0-5.597-2.214-10.87-6.265-14.848C32.453 2.174 27.083 0 21.383 0 15.639 0 10.316 2.174 6.265 6.152 2.214 10.13 0 15.357 0 21c0 5.643 2.214 10.87 6.264 14.848C10.315 39.826 15.684 42 21.384 42c5.699 0 11.069-2.174 15.12-6.152 2.495-2.451 4.285-5.366 5.274-8.557.189-.555.33-1.157.471-1.712l-4.333-4.486L26.518 9.205ZM60.411 13.495h3.145l-1.715 8.468h5.304l-.508 2.45h-8.449l2.223-10.918ZM70.105 13.495h3.144l-2.223 10.917h-3.144l2.223-10.917ZM78.139 15.88l-.492 2.403h4.907l-.492 2.386H77.17l-.762 3.743h-3.145l2.224-10.917h8.703l-.492 2.386h-5.56ZM88.28 15.88l-.364 1.841h4.939l-.46 2.308h-4.956l-.397 1.997h5.829l-.508 2.386h-8.91l2.223-10.917h8.703l-.492 2.386h-5.606ZM98.205 15.943H94.79l.509-2.448h9.957l-.508 2.448h-3.398l-1.731 8.47h-3.145l1.731-8.47ZM110.053 24.63c-1.123 0-2.102-.202-2.938-.608-.826-.405-1.467-.972-1.922-1.7-.445-.728-.667-1.56-.667-2.495 0-1.248.291-2.371.873-3.37a6.221 6.221 0 0 1 2.462-2.339c1.059-.561 2.261-.842 3.605-.842 1.122 0 2.097.203 2.922.608.837.406 1.477.973 1.922 1.7.455.728.683 1.56.683 2.496 0 1.248-.296 2.37-.889 3.369-.583.998-1.403 1.778-2.462 2.34-1.048.56-2.245.841-3.589.841Zm.27-2.557c.698 0 1.313-.172 1.842-.515.529-.343.937-.8 1.223-1.373a4.291 4.291 0 0 0 .429-1.918c0-.738-.233-1.326-.699-1.762-.455-.447-1.096-.671-1.922-.671-.699 0-1.313.172-1.842.515a3.415 3.415 0 0 0-1.223 1.388 4.193 4.193 0 0 0-.429 1.903c0 .738.228 1.33.683 1.778.466.436 1.112.655 1.938.655ZM122.896 24.63c-.963 0-1.794-.155-2.493-.467-.699-.323-1.234-.78-1.604-1.373-.371-.593-.556-1.29-.556-2.09 0-.333.042-.717.127-1.154l1.239-6.051h3.144l-1.223 6.004a4.363 4.363 0 0 0-.095.858c0 1.144.614 1.716 1.842 1.716.667 0 1.192-.198 1.573-.593.391-.406.683-1.066.873-1.98l1.223-6.005h3.097l-1.255 6.191c-.677 3.296-2.641 4.945-5.892 4.945ZM141.416 16.973c0 .998-.27 1.86-.81 2.589-.54.717-1.297 1.242-2.271 1.575l1.89 3.275h-3.287l-1.652-2.9h-1.588l-.588 2.9h-3.144l2.223-10.917h4.749c1.419 0 2.52.306 3.303.92.784.613 1.175 1.466 1.175 2.558Zm-3.176.296c0-.447-.153-.78-.461-.998-.307-.23-.735-.344-1.286-.344h-1.652l-.667 3.198h1.874c.699 0 1.239-.161 1.62-.484.381-.322.572-.78.572-1.372ZM60.282 34.706a2.19 2.19 0 0 1-1.044-.25 1.906 1.906 0 0 1-.73-.694 1.904 1.904 0 0 1-.26-.987c0-.365.087-.694.26-.987.177-.293.42-.523.73-.69.313-.17.66-.254 1.044-.254.383 0 .727.083 1.033.25a1.874 1.874 0 0 1 .994 1.682c0 .364-.088.695-.265.992-.177.293-.42.522-.73.689-.305.166-.65.25-1.032.25Zm0-.358c.305 0 .582-.067.828-.2.247-.138.44-.326.58-.565.14-.242.21-.511.21-.808 0-.297-.07-.564-.21-.803a1.462 1.462 0 0 0-.58-.564 1.674 1.674 0 0 0-.828-.206c-.306 0-.584.068-.834.206a1.5 1.5 0 0 0-.586.564c-.14.239-.21.506-.21.803 0 .297.07.566.21.808.144.239.339.427.585.565.251.133.529.2.835.2ZM64.688 31.799c.272 0 .519.061.74.184.22.12.394.29.52.51a1.5 1.5 0 0 1 .187.754c0 .286-.063.539-.188.76a1.33 1.33 0 0 1-.52.515c-.217.12-.463.179-.74.179-.235 0-.449-.047-.64-.141a1.228 1.228 0 0 1-.464-.423v1.59h-.392V31.82h.375v.564c.118-.188.273-.332.464-.434.195-.1.415-.151.658-.151Zm-.028 2.56c.203 0 .387-.045.552-.136a.986.986 0 0 0 .387-.396c.096-.17.144-.363.144-.58 0-.217-.048-.409-.144-.575a.985.985 0 0 0-.387-.396 1.1 1.1 0 0 0-.552-.141c-.206 0-.392.047-.558.14-.162.095-.29.227-.387.397a1.168 1.168 0 0 0-.138.575c0 .217.046.41.138.58.096.17.225.302.387.397.166.09.352.135.558.135ZM69.032 32.162H67.37v2.512h-.392V31.82h2.055v.342ZM70.6 31.799c.379 0 .67.093.872.282.203.184.304.459.304.824v1.769H71.4v-.445a.89.89 0 0 1-.392.347c-.17.083-.372.125-.608.125-.324 0-.582-.076-.773-.228a.73.73 0 0 1-.287-.602c0-.242.088-.438.265-.586.18-.148.466-.222.856-.222h.923v-.174c0-.246-.07-.432-.21-.559-.14-.13-.345-.195-.614-.195-.184 0-.36.03-.53.092-.17.058-.315.14-.436.244l-.177-.287a1.54 1.54 0 0 1 .53-.282 2.05 2.05 0 0 1 .652-.104Zm-.139 2.598c.221 0 .41-.049.57-.146a.91.91 0 0 0 .353-.434v-.467h-.912c-.497 0-.746.17-.746.51a.47.47 0 0 0 .194.396c.129.094.31.141.541.141ZM72.82 31.82h.392v1.264h1.829V31.82h.392v2.854h-.392v-1.259h-1.829v1.259h-.392V31.82ZM76.548 31.82h.392v2.268l1.939-2.268h.348v2.854h-.392v-2.268L76.9 34.674h-.353V31.82ZM81.706 33.187a.921.921 0 0 1 .475.244.58.58 0 0 1 .17.424.644.644 0 0 1-.176.444c-.114.13-.27.232-.47.304a2.002 2.002 0 0 1-.657.103c-.21 0-.416-.029-.618-.087a1.652 1.652 0 0 1-.53-.265l.132-.288c.132.098.287.174.464.228.177.054.355.081.536.081.269 0 .488-.048.657-.146.173-.101.26-.237.26-.407a.39.39 0 0 0-.21-.353c-.14-.086-.332-.13-.575-.13h-.497v-.282h.475c.217 0 .392-.04.525-.12.132-.082.199-.193.199-.33 0-.152-.076-.271-.227-.358-.147-.087-.34-.13-.58-.13-.313 0-.622.077-.928.233l-.11-.298a2.336 2.336 0 0 1 1.077-.266c.22 0 .42.032.597.097.18.062.32.15.42.266.103.116.154.25.154.402a.552.552 0 0 1-.155.385.885.885 0 0 1-.408.25ZM84.242 31.799c.38 0 .67.093.873.282.202.184.304.459.304.824v1.769h-.376v-.445a.89.89 0 0 1-.392.347c-.17.083-.372.125-.608.125-.324 0-.582-.076-.773-.228a.73.73 0 0 1-.287-.602c0-.242.088-.438.265-.586.18-.148.466-.222.856-.222h.922v-.174c0-.246-.07-.432-.21-.559-.14-.13-.344-.195-.613-.195-.184 0-.36.03-.53.092-.17.058-.315.14-.436.244l-.177-.287a1.54 1.54 0 0 1 .53-.282 2.05 2.05 0 0 1 .652-.104Zm-.138 2.598c.221 0 .41-.049.569-.146a.91.91 0 0 0 .353-.434v-.467h-.911c-.497 0-.746.17-.746.51a.47.47 0 0 0 .194.396c.129.094.309.141.541.141ZM89.49 34.337v1.053h-.37v-.716h-2.657V31.82h.392v2.517h1.773V31.82h.392v2.517h.47ZM90.239 31.82h.392v2.268l1.94-2.268h.347v2.854h-.392v-2.268l-1.933 2.268h-.354V31.82ZM96.274 31.82v2.854h-.36v-.944h-1.021l-.674.944h-.425l.723-.998a.983.983 0 0 1-.519-.315.861.861 0 0 1-.182-.564c0-.319.11-.56.331-.727.221-.167.523-.25.906-.25h1.22Zm-2.06.988c0 .423.274.634.823.634h.878v-1.28h-.85c-.568 0-.852.215-.852.646ZM101.445 31.82v2.854h-.392v-2.512H99.23v2.512h-.392V31.82h2.607ZM103.759 34.7c-.28 0-.532-.06-.757-.184a1.402 1.402 0 0 1-.53-.52 1.455 1.455 0 0 1-.193-.749c0-.279.064-.528.193-.749.129-.22.306-.392.53-.515.225-.123.477-.184.757-.184s.532.061.757.184c.224.123.399.295.525.515.128.22.193.47.193.749 0 .278-.065.528-.193.749-.126.22-.301.394-.525.52a1.551 1.551 0 0 1-.757.185Zm0-.34c.206 0 .39-.046.552-.136a.984.984 0 0 0 .387-.397 1.2 1.2 0 0 0 .138-.58 1.2 1.2 0 0 0-.138-.58.948.948 0 0 0-.387-.391 1.08 1.08 0 0 0-.552-.141c-.206 0-.392.047-.558.14a.998.998 0 0 0-.387.392 1.2 1.2 0 0 0-.138.58c0 .217.046.41.138.58.096.17.225.302.387.397.166.09.352.135.558.135ZM107.787 34.674l-.922-1.194-.929 1.194h-.441l1.149-1.465-1.094-1.389h.442l.873 1.118.872-1.118h.431l-1.094 1.389 1.16 1.465h-.447ZM109.974 34.7c-.28 0-.533-.06-.757-.184a1.398 1.398 0 0 1-.531-.52 1.465 1.465 0 0 1-.193-.749c0-.279.065-.528.193-.749.129-.22.306-.392.531-.515.224-.123.477-.184.757-.184.279 0 .532.061.756.184.225.123.4.295.525.515.129.22.193.47.193.749 0 .278-.064.528-.193.749-.125.22-.3.394-.525.52a1.547 1.547 0 0 1-.756.185Zm0-.34c.206 0 .39-.046.552-.136a.984.984 0 0 0 .387-.397 1.2 1.2 0 0 0 .138-.58 1.2 1.2 0 0 0-.138-.58.948.948 0 0 0-.387-.391 1.08 1.08 0 0 0-.552-.141c-.207 0-.393.047-.558.14a.998.998 0 0 0-.387.392 1.2 1.2 0 0 0-.138.58c0 .217.046.41.138.58.096.17.225.302.387.397.165.09.351.135.558.135ZM115.104 34.337v1.026h-.37v-.69h-2.602v.69h-.37v-1.026h.166c.195-.01.328-.152.398-.423s.118-.65.143-1.139l.039-.955h2.143v2.517h.453Zm-2.276-1.54c-.018.405-.053.74-.105 1.003-.051.26-.143.44-.276.537h1.812v-2.175h-1.397l-.034.635ZM117.067 34.7c-.279 0-.532-.06-.756-.184a1.398 1.398 0 0 1-.531-.52 1.455 1.455 0 0 1-.193-.749c0-.279.064-.528.193-.749.129-.22.306-.392.531-.515.224-.123.477-.184.756-.184.28 0 .533.061.757.184.225.123.4.295.525.515.129.22.193.47.193.749 0 .278-.064.528-.193.749-.125.22-.3.394-.525.52a1.548 1.548 0 0 1-.757.185Zm0-.34c.207 0 .391-.046.553-.136a.982.982 0 0 0 .386-.397c.093-.17.139-.363.139-.58 0-.217-.046-.41-.139-.58a.946.946 0 0 0-.386-.391 1.08 1.08 0 0 0-.553-.141c-.206 0-.392.047-.558.14a.996.996 0 0 0-.386.392 1.2 1.2 0 0 0-.138.58c0 .217.046.41.138.58.096.17.224.302.386.397.166.09.352.135.558.135ZM121.231 33.198c.394.09.591.324.591.7 0 .25-.094.441-.282.575-.187.134-.467.2-.839.2h-1.32V31.82h1.281c.332 0 .591.064.779.19a.615.615 0 0 1 .282.543c0 .155-.044.289-.133.401a.76.76 0 0 1-.359.244Zm-1.469-.108h.873c.224 0 .395-.042.513-.125a.412.412 0 0 0 .183-.364.399.399 0 0 0-.183-.358c-.118-.08-.289-.119-.513-.119h-.873v.966Zm.922 1.28c.251 0 .438-.04.564-.12.125-.079.188-.204.188-.374s-.058-.294-.172-.374c-.114-.083-.294-.125-.541-.125h-.961v.993h.922ZM126.038 33.198c.394.09.591.324.591.7 0 .25-.094.441-.282.575-.188.134-.468.2-.84.2h-1.32V31.82h1.282c.331 0 .591.064.779.19a.617.617 0 0 1 .281.543.63.63 0 0 1-.132.401.765.765 0 0 1-.359.244Zm-1.47-.108h.873c.225 0 .396-.042.514-.125a.414.414 0 0 0 .182-.364.4.4 0 0 0-.182-.358c-.118-.08-.289-.119-.514-.119h-.873v.966Zm.923 1.28c.25 0 .438-.04.563-.12.125-.079.188-.204.188-.374s-.057-.294-.171-.374c-.114-.083-.295-.125-.542-.125h-.961v.993h.923ZM131.049 32.162h-1.663v2.512h-.392V31.82h2.055v.342ZM132.679 34.7c-.28 0-.532-.06-.756-.184a1.398 1.398 0 0 1-.531-.52 1.455 1.455 0 0 1-.193-.749c0-.279.064-.528.193-.749.129-.22.306-.392.531-.515.224-.123.476-.184.756-.184s.532.061.757.184c.225.123.4.295.525.515.129.22.193.47.193.749 0 .278-.064.528-.193.749-.125.22-.3.394-.525.52a1.551 1.551 0 0 1-.757.185Zm0-.34c.207 0 .391-.046.553-.136a.988.988 0 0 0 .386-.397 1.2 1.2 0 0 0 .139-.58 1.2 1.2 0 0 0-.139-.58.952.952 0 0 0-.386-.391 1.08 1.08 0 0 0-.553-.141c-.206 0-.392.047-.558.14a.99.99 0 0 0-.386.392 1.2 1.2 0 0 0-.138.58c0 .217.046.41.138.58.095.17.224.302.386.397.166.09.352.135.558.135ZM136.49 31.799c.272 0 .519.061.74.184.221.12.394.29.519.51.125.22.188.472.188.754 0 .286-.063.539-.188.76-.125.22-.298.392-.519.515-.218.12-.464.179-.74.179-.236 0-.45-.047-.641-.141a1.223 1.223 0 0 1-.464-.423v1.59h-.393V31.82h.376v.564a1.21 1.21 0 0 1 .464-.434c.195-.1.414-.151.658-.151Zm-.028 2.56c.202 0 .387-.045.552-.136a.984.984 0 0 0 .387-.396 1.16 1.16 0 0 0 .144-.58 1.13 1.13 0 0 0-.144-.575.984.984 0 0 0-.387-.396 1.098 1.098 0 0 0-.552-.141c-.206 0-.392.047-.558.14a1.037 1.037 0 0 0-.387.397 1.169 1.169 0 0 0-.138.575c0 .217.046.41.138.58.096.17.225.302.387.397.166.09.352.135.558.135ZM140 32.83c.365.003.643.082.834.238.192.156.288.38.288.673 0 .303-.103.537-.31.7-.206.162-.501.242-.884.238l-1.149-.005V31.82h.393v.998l.828.011Zm1.608-1.01H142v2.854h-.392V31.82Zm-1.702 2.566c.269.004.472-.049.608-.157.14-.112.21-.275.21-.488 0-.21-.068-.366-.204-.467-.137-.101-.341-.154-.614-.157l-.734-.011v1.27l.734.01Z"/>
  </symbol>
  <symbol id="vk" width="25" height="25" viewBox="0 0 25 25" fill="none" xmlns="http://www.w3.org/2000/svg">
    <path d="M13.7227 15.0518C14.1654 14.9087 14.7322 15.9964 15.3355 16.4127C15.7884 16.728 16.1352 16.6599 16.1352 16.6599L17.7434 16.6368C17.7434 16.6368 18.5838 16.5849 18.1865 15.9172C18.1536 15.8616 17.9536 15.4222 16.9895 14.5179C15.9815 13.5718 16.1181 13.7251 17.3317 12.0896C18.0712 11.0927 18.3671 10.4838 18.2745 10.2244C18.1856 9.97486 17.6424 10.0397 17.6424 10.0397L15.8305 10.0522C15.6541 10.0527 15.5045 10.1073 15.4365 10.2907C15.4351 10.2925 15.1489 11.0621 14.7674 11.7164C13.9612 13.1005 13.6394 13.1741 13.506 13.0875C13.1999 12.887 13.2773 12.2832 13.2773 11.8539C13.2773 10.5125 13.4773 9.9531 12.8855 9.80863C12.6878 9.76047 12.5433 9.72898 12.0391 9.72435C11.3945 9.71463 10.8472 9.72435 10.5369 9.8767C10.3309 9.97996 10.173 10.2064 10.2688 10.2194C10.3892 10.2356 10.6592 10.2934 10.8036 10.4907C10.9893 10.7463 10.9838 11.3191 10.9838 11.3191C10.9838 11.3191 11.0898 12.8986 10.7337 13.0944C10.4892 13.2287 10.1549 12.9546 9.43578 11.6979C9.06858 11.0552 8.79121 10.3448 8.79121 10.3448C8.79121 10.3448 8.7375 10.2129 8.64026 10.1406C8.52449 10.055 8.36243 10.0277 8.36243 10.0277L6.64265 10.0388C6.64265 10.0388 6.38427 10.0462 6.28935 10.1601C6.20507 10.261 6.2824 10.4694 6.2824 10.4694C6.2824 10.4694 7.62942 13.6557 9.15471 15.2606C10.5531 16.734 12.1423 16.6363 12.1423 16.6363H12.8624C12.8624 16.6363 13.0795 16.6113 13.1907 16.4918C13.2944 16.3807 13.2898 16.1719 13.2898 16.1719C13.2898 16.1719 13.2754 15.1953 13.7227 15.0518Z" fill="currentColor"/>
  </symbol>
  <symbol id="ok" width="25" height="25" viewBox="0 0 25 25" fill="none" xmlns="http://www.w3.org/2000/svg">
    <path d="M12.6804 6.88882C13.5788 6.88882 14.3096 7.64312 14.3096 8.57064C14.3096 9.49536 13.5788 10.2497 12.6804 10.2497C11.7819 10.2497 11.0512 9.49536 11.0512 8.57064C11.0512 7.64312 11.7819 6.88882 12.6804 6.88882ZM12.6804 12.6299C14.8508 12.6299 16.6153 10.8084 16.6153 8.57064C16.6153 6.33008 14.8508 4.50858 12.6804 4.50858C10.5099 4.50858 8.74809 6.33008 8.74809 8.57064C8.74809 10.8084 10.5099 12.6299 12.6804 12.6299ZM14.2717 15.9432C15.0727 15.7533 15.844 15.4264 16.5558 14.9654C17.0943 14.6162 17.2567 13.8815 16.9184 13.3255C16.5774 12.7668 15.8684 12.5992 15.3271 12.9512C13.7169 13.996 11.6438 13.996 10.0309 12.9512C9.49232 12.5992 8.78057 12.7668 8.44228 13.3255C8.10399 13.8815 8.26637 14.6162 8.80492 14.9654C9.51668 15.4264 10.288 15.7533 11.089 15.9432L8.88882 18.2117C8.43957 18.6755 8.43957 19.4298 8.88882 19.8936C9.11615 20.1254 9.40843 20.2428 9.70342 20.2428C9.9984 20.2428 10.2934 20.1254 10.5207 19.8936L12.6804 17.6642L14.8427 19.8936C15.2919 20.3601 16.0199 20.3601 16.4719 19.8936C16.9211 19.4298 16.9211 18.6755 16.4719 18.2117L14.2717 15.9432Z" fill="currentColor"/>
  </symbol>
  <symbol id="reddit" width="25" height="25" viewBox="0 0 25 25" fill="none" xmlns="http://www.w3.org/2000/svg">
    <path d="M13.8509 5.55566C13.4055 5.55566 12.9876 5.7816 12.7195 6.10741C12.4514 6.43323 12.3037 6.8304 12.196 7.24897C12.0251 7.92201 11.9723 8.66877 11.9596 9.34181C10.7079 9.42505 9.57444 9.79606 8.63303 10.3692C8.25098 10.0481 7.79083 9.86978 7.34968 9.87454C6.84731 9.87929 6.37028 10.0957 6.01566 10.5404C5.3381 11.3895 5.4162 12.7784 6.20141 13.6036C6.15286 13.8581 6.11698 14.1197 6.11698 14.3837C6.11698 17.1805 8.97498 19.4446 12.5 19.4446C16.025 19.4446 18.883 17.1781 18.883 14.3837C18.883 14.1197 18.8471 13.8581 18.7986 13.6036C19.5838 12.7784 19.6619 11.3895 18.9843 10.5404C18.6297 10.0957 18.1527 9.87929 17.6503 9.87454C17.2091 9.86978 16.749 10.0481 16.3669 10.3692C15.4298 9.79843 14.3026 9.42743 13.0572 9.34181C13.0741 8.72109 13.1184 8.07659 13.243 7.59143C13.3211 7.28702 13.414 7.06584 13.5132 6.94455C13.6124 6.82326 13.6841 6.77332 13.8509 6.77332C14.2118 6.77332 14.2583 6.88985 14.4757 7.17286C14.5854 7.31556 14.7121 7.49393 14.9147 7.66754C15.1174 7.84115 15.4171 7.99098 15.7421 7.99098V6.77332C15.6514 6.77332 15.6345 6.77094 15.5733 6.71624C15.5121 6.66154 15.4276 6.5355 15.3031 6.37378C15.054 6.04796 14.5707 5.55566 13.8509 5.55566ZM17.3632 5.66982C16.5231 5.66982 15.8435 6.43561 15.8435 7.38215C15.8435 8.32869 16.5231 9.09448 17.3632 9.09448C18.2033 9.09448 18.883 8.32869 18.883 7.38215C18.883 6.43561 18.2033 5.66982 17.3632 5.66982ZM17.3632 6.27865C17.9036 6.27865 18.3426 6.77332 18.3426 7.38215C18.3426 7.99098 17.9036 8.48565 17.3632 8.48565C16.8229 8.48565 16.3838 7.99098 16.3838 7.38215C16.3838 6.77332 16.8229 6.27865 17.3632 6.27865ZM12.5 10.2931C15.491 10.2931 18.0218 12.1695 18.0218 14.3837C18.0218 16.6002 15.491 18.4742 12.5 18.4742C9.50901 18.4742 6.97818 16.6002 6.97818 14.3837C6.97818 12.1695 9.50901 10.2931 12.5 10.2931ZM7.36656 10.8449C7.51643 10.8472 7.67263 10.8853 7.82249 10.959C7.28002 11.4228 6.84942 11.9555 6.55602 12.5572C6.35339 12.0863 6.40827 11.4989 6.65734 11.1873C6.83887 10.959 7.09005 10.8425 7.36656 10.8449ZM17.6334 10.8449C17.9099 10.8425 18.1611 10.959 18.3426 11.1873C18.5917 11.4989 18.6466 12.0863 18.4439 12.5572C18.1506 11.9555 17.72 11.4228 17.1775 10.959C17.3273 10.8853 17.4835 10.8472 17.6334 10.8449ZM10.3385 12.3669C9.79819 12.3669 9.35914 12.8616 9.35914 13.4704C9.35914 14.0793 9.79819 14.5739 10.3385 14.5739C10.8789 14.5739 11.3179 14.0793 11.3179 13.4704C11.3179 12.8616 10.8789 12.3669 10.3385 12.3669ZM14.6614 12.3669C14.1211 12.3669 13.682 12.8616 13.682 13.4704C13.682 14.0793 14.1211 14.5739 14.6614 14.5739C15.2018 14.5739 15.6408 14.0793 15.6408 13.4704C15.6408 12.8616 15.2018 12.3669 14.6614 12.3669ZM9.81507 16.115C10.1591 16.9165 11.223 17.6942 12.5 17.6942C13.777 17.6942 14.8577 16.9165 15.2018 16.115C14.577 16.5693 13.5913 16.8761 12.5 16.8761C11.4087 16.8761 10.4399 16.5693 9.81507 16.115Z" fill="currentColor"/>
  </symbol>
  <symbol id="play" viewBox="0 0 15 20" fill="none">
    <path d="M15 7.5L0.249999 17.8612L0.25 0.158783L13 9.5Z" fill="currentColor"/>
  </symbol>
  <symbol id="envelope" viewBox="0 0 22 22" fill="none">
    <path d="M21 5.55556V16.4444C21 17.3036 20.3604 18 19.5714 18H2.42857C1.63959 18 1 17.3036 1 16.4444V5.55556M21 5.55556C21 4.69645 20.3604 4 19.5714 4H2.42857C1.63959 4 1 4.69645 1 5.55556M21 5.55556L12.8594 13.1534C11.7895 14.152 10.2106 14.152 9.14062 13.1534L1 5.55556" stroke="currentColor" stroke-linecap="round" stroke-linejoin="round"/>
  </symbol>
  <symbol id="phone" viewBox="0 0 22 22" fill="none" xmlns="http://www.w3.org/2000/svg">
    <g clip-path="url(#clip0_131_2514)">
      <path d="M19.3236 20.0443C19.0034 20.6753 18.3438 21.0672 17.6426 20.9904C17.3412 20.9575 17.0402 20.9171 16.7396 20.8693C12.8229 20.2465 9.20304 18.3949 6.39895 15.5797C3.59486 12.7646 1.75046 9.1305 1.1301 5.19831C1.08254 4.89683 1.04236 4.59477 1.00952 4.29242C0.933062 3.58844 1.32346 2.92622 1.95195 2.60473L4.70244 1.19777C5.76693 0.653244 7.05498 1.28842 7.42933 2.42743C7.65638 3.11826 7.92452 3.79805 8.23342 4.4631C8.38821 4.79636 8.5524 5.12412 8.72567 5.44606C9.13588 6.20824 8.85917 7.18583 8.0736 7.54431C6.93267 8.06496 6.66094 9.56938 7.54713 10.4591L11.4995 14.427C12.3857 15.3167 13.8842 15.0439 14.4028 13.8985C14.7796 13.0663 15.8009 12.765 16.6118 13.1807C16.8084 13.2814 17.0071 13.3788 17.2078 13.4728C17.9681 13.8287 18.7478 14.1308 19.5413 14.3784C20.6964 14.7389 21.3521 16.0475 20.8029 17.1296L19.3236 20.0443Z" stroke="#2D383F" stroke-linecap="round" stroke-linejoin="round"/>
    </g>
    
  </symbol>
</symbol></svg>